<?xml version="1.0" encoding="UTF-8"?>
<svg version="1.1" xmlns="http://www.w3.org/2000/svg" width="500" height="500">
<path d="M0 0 C1.15109253 0.30296997 1.15109253 0.30296997 2.32543945 0.61206055 C2.39486675 13.33782644 2.44821375 26.06354748 2.48087597 38.789464 C2.49655004 44.69825225 2.51782019 50.60691118 2.55175781 56.515625 C2.58428899 62.21496036 2.60227934 67.91417113 2.61007118 73.61359215 C2.61562591 75.79097137 2.62647255 77.96834357 2.64262962 80.14566994 C2.66432076 83.18906156 2.66740985 86.23193448 2.66601562 89.27539062 C2.67680145 90.18097717 2.68758728 91.08656372 2.69869995 92.01959229 C2.69457596 92.84830338 2.69045197 93.67701447 2.686203 94.53083801 C2.68896838 95.25075833 2.69173376 95.97067865 2.69458294 96.71241474 C2.21526509 99.17902782 1.2396563 100.03627291 -0.67456055 101.61206055 C-3.35099942 103.20119613 -4.49256614 103.61206055 -7.67456055 103.61206055 C-7.67456055 99.32206055 -7.67456055 95.03206055 -7.67456055 90.61206055 C-19.88456055 90.61206055 -32.09456055 90.61206055 -44.67456055 90.61206055 C-44.67456055 96.22206055 -44.67456055 101.83206055 -44.67456055 107.61206055 C-39.21451187 107.49364719 -39.21451187 107.49364719 -33.75537109 107.34179688 C-33.0725708 107.3343042 -32.38977051 107.32681152 -31.6862793 107.3190918 C-30.98978271 107.30338135 -30.29328613 107.2876709 -29.57568359 107.27148438 C-27.04512246 107.72482106 -26.28047491 108.63271665 -24.67456055 110.61206055 C-24.29360962 112.50915527 -24.29360962 112.50915527 -24.28637695 114.66870117 C-24.27692047 115.47964233 -24.26746399 116.2905835 -24.25772095 117.12609863 C-24.26379364 117.99802856 -24.26986633 118.8699585 -24.27612305 119.76831055 C-24.27325287 120.66698853 -24.27038269 121.5656665 -24.26742554 122.49157715 C-24.2653844 124.39128245 -24.27091776 126.29100875 -24.28344727 128.19067383 C-24.29950034 131.10114464 -24.28360042 134.01022676 -24.2644043 136.9206543 C-24.26638672 138.76570945 -24.27023038 140.61076374 -24.27612305 142.45581055 C-24.27005035 143.32774048 -24.26397766 144.19967041 -24.25772095 145.09802246 C-24.27190567 146.3144342 -24.27190567 146.3144342 -24.28637695 147.55541992 C-24.28876373 148.26807007 -24.29115051 148.98072021 -24.29360962 149.71496582 C-24.79546913 152.21417229 -25.64528236 153.10153726 -27.67456055 154.61206055 C-30.34350018 154.83082609 -32.70956342 154.8954135 -35.36206055 154.79956055 C-37.77518555 154.73768555 -40.18831055 154.67581055 -42.67456055 154.61206055 C-42.67456055 163.52206055 -42.67456055 172.43206055 -42.67456055 181.61206055 C-37.87293844 181.53316625 -37.87293844 181.53316625 -33.07177734 181.43188477 C-29.36008184 181.40106581 -27.83922391 181.50228497 -24.67456055 183.61206055 C-24.25459158 187.9685386 -24.54560689 192.22763624 -24.67456055 196.61206055 C-19.06456055 196.61206055 -13.45456055 196.61206055 -7.67456055 196.61206055 C-7.67456055 183.74206055 -7.67456055 170.87206055 -7.67456055 157.61206055 C1.32543945 160.61206055 1.32543945 160.61206055 2.32543945 161.61206055 C2.42073557 164.62556293 2.45095849 167.6161016 2.43896484 170.62988281 C2.43911087 171.57612518 2.4392569 172.52236755 2.43940735 173.49728394 C2.43870782 176.64103447 2.43091354 179.78472655 2.4230957 182.9284668 C2.42123167 185.10180122 2.4198077 187.27513607 2.41880798 189.44847107 C2.41498167 195.1810725 2.40515042 200.91364877 2.394104 206.64624023 C2.38389232 212.49096333 2.37931089 218.33569048 2.37426758 224.18041992 C2.36352825 235.65764454 2.34645047 247.13485046 2.32543945 258.61206055 C-0.67456055 259.61206055 -0.67456055 259.61206055 -2.67456055 259.04956055 C-5.60103045 256.94616031 -6.3489389 254.97500959 -7.67456055 251.61206055 C-8.06948125 248.2750246 -8.0246629 244.97620753 -7.9675293 241.61987305 C-7.96328445 240.6739328 -7.95903961 239.72799255 -7.95466614 238.75338745 C-7.93794361 235.74764921 -7.90030317 232.74259435 -7.86206055 229.73706055 C-7.84700541 227.69279943 -7.83331846 225.64852775 -7.82104492 223.60424805 C-7.7880611 218.606591 -7.73632308 213.60944144 -7.67456055 208.61206055 C-13.28456055 208.61206055 -18.89456055 208.61206055 -24.67456055 208.61206055 C-24.63975586 209.87663086 -24.60495117 211.14120117 -24.5690918 212.4440918 C-24.54095378 214.10423477 -24.51365363 215.7643921 -24.48706055 217.42456055 C-24.46192383 218.25793945 -24.43678711 219.09131836 -24.41088867 219.94995117 C-24.4012207 220.75239258 -24.39155273 221.55483398 -24.3815918 222.3815918 C-24.36588135 223.11998291 -24.3501709 223.85837402 -24.33398438 224.61914062 C-24.7799421 227.22871259 -25.62332962 227.97208485 -27.67456055 229.61206055 C-29.68554688 229.98628235 -29.68554688 229.98628235 -32.0065918 229.984375 C-32.87759521 229.99060379 -33.74859863 229.99683258 -34.64599609 230.00325012 C-35.58354736 229.99404037 -36.52109863 229.98483063 -37.48706055 229.9753418 C-38.45232666 229.9758403 -39.41759277 229.97633881 -40.41210938 229.97685242 C-42.45306456 229.97451178 -44.49402262 229.96478386 -46.53491211 229.94824219 C-49.66245278 229.92465187 -52.78914104 229.92768111 -55.91674805 229.93432617 C-57.89852397 229.92874937 -59.8802963 229.92163948 -61.86206055 229.9128418 C-63.26838745 229.91420891 -63.26838745 229.91420891 -64.703125 229.91560364 C-65.57412842 229.90607162 -66.44513184 229.89653961 -67.3425293 229.88671875 C-68.10847412 229.88211136 -68.87441895 229.87750397 -69.66357422 229.87275696 C-71.67456055 229.61206055 -71.67456055 229.61206055 -74.67456055 227.61206055 C-75.05551147 225.71459961 -75.05551147 225.71459961 -75.06274414 223.37768555 C-75.07220062 222.50337891 -75.0816571 221.62907227 -75.09140015 220.72827148 C-75.08532745 219.78242188 -75.07925476 218.83657227 -75.07299805 217.86206055 C-75.07586823 216.89300781 -75.0787384 215.92395508 -75.08169556 214.92553711 C-75.08373924 212.8744244 -75.07818821 210.82329234 -75.06567383 208.7722168 C-75.04962469 205.62463994 -75.06551249 202.47834725 -75.0847168 199.33081055 C-75.08273442 197.34122437 -75.07889086 195.35163899 -75.07299805 193.36206055 C-75.07907074 192.41621094 -75.08514343 191.47036133 -75.09140015 190.49584961 C-75.07721542 189.18438965 -75.07721542 189.18438965 -75.06274414 187.84643555 C-75.06035736 187.07525391 -75.05797058 186.30407227 -75.05551147 185.50952148 C-74.67456055 183.61206055 -74.67456055 183.61206055 -71.67456055 181.61206055 C-68.89959728 181.46916851 -66.25503862 181.42468513 -63.48706055 181.48706055 C-60.90893555 181.52831055 -58.33081055 181.56956055 -55.67456055 181.61206055 C-55.67456055 172.70206055 -55.67456055 163.79206055 -55.67456055 154.61206055 C-60.80526894 154.69097767 -60.80526894 154.69097767 -65.93554688 154.79223633 C-69.73975816 154.82182623 -71.43884224 154.76920608 -74.67456055 152.61206055 C-75.05551147 150.75256348 -75.05551147 150.75256348 -75.06274414 148.46948242 C-75.07220062 147.61519653 -75.0816571 146.76091064 -75.09140015 145.8807373 C-75.08532745 144.95676147 -75.07925476 144.03278564 -75.07299805 143.08081055 C-75.07586823 142.13395386 -75.0787384 141.18709717 -75.08169556 140.21154785 C-75.08373914 138.20751346 -75.07818878 136.20345925 -75.06567383 134.19946289 C-75.04962445 131.12430403 -75.0655127 128.05045957 -75.0847168 124.9753418 C-75.08273442 123.03132847 -75.07889085 121.08731596 -75.07299805 119.14331055 C-75.07907074 118.21933472 -75.08514343 117.29535889 -75.09140015 116.34338379 C-75.07721542 115.06195496 -75.07721542 115.06195496 -75.06274414 113.75463867 C-75.06035736 113.00122192 -75.05797058 112.24780518 -75.05551147 111.47155762 C-74.67456055 109.61206055 -74.67456055 109.61206055 -71.67456055 107.61206055 C-68.89959728 107.46916851 -66.25503862 107.42468513 -63.48706055 107.48706055 C-60.90893555 107.52831055 -58.33081055 107.56956055 -55.67456055 107.61206055 C-55.67456055 102.00206055 -55.67456055 96.39206055 -55.67456055 90.61206055 C-76.79456055 90.61206055 -97.91456055 90.61206055 -119.67456055 90.61206055 C-119.67456055 96.22206055 -119.67456055 101.83206055 -119.67456055 107.61206055 C-114.21415931 107.45416204 -114.21415931 107.45416204 -108.75537109 107.25170898 C-108.0725708 107.24171875 -107.38977051 107.23172852 -106.6862793 107.22143555 C-105.64153442 107.19001465 -105.64153442 107.19001465 -104.57568359 107.15795898 C-102.67456055 107.61206055 -102.67456055 107.61206055 -100.94873047 109.08764648 C-99.08844198 112.77329181 -99.24622254 116.35639569 -99.27612305 120.39331055 C-99.27181778 121.66905945 -99.27181778 121.66905945 -99.26742554 122.97058105 C-99.26538712 124.76595731 -99.27090148 126.56135588 -99.28344727 128.35668945 C-99.29950449 131.10247527 -99.28359152 133.84678918 -99.2644043 136.5925293 C-99.26638677 138.33862629 -99.27023053 140.08472237 -99.27612305 141.83081055 C-99.26701401 143.0606366 -99.26701401 143.0606366 -99.25772095 144.31530762 C-99.29621897 147.44024825 -99.51758647 150.17888945 -100.58618164 153.12768555 C-104.18364006 155.68468194 -108.19285458 155.18039637 -112.48706055 155.14331055 C-113.45232666 155.14713745 -114.41759277 155.15096436 -115.41210938 155.15490723 C-117.45305423 155.15762937 -119.49403379 155.15024711 -121.53491211 155.13354492 C-124.66298026 155.11213979 -127.78875153 155.13333658 -130.91674805 155.15893555 C-132.89852396 155.15629232 -134.88029844 155.15116746 -136.86206055 155.14331055 C-137.79961182 155.15140747 -138.73716309 155.15950439 -139.703125 155.16784668 C-146.02200067 155.07637466 -146.02200067 155.07637466 -148.76074219 153.12768555 C-150.1180484 149.39119524 -150.12220563 145.75515831 -150.1081543 141.83081055 C-150.11339615 140.98031128 -150.118638 140.12981201 -150.1240387 139.25354004 C-150.13045246 137.45818166 -150.12913024 135.66278123 -150.12060547 133.86743164 C-150.11208948 131.12139112 -150.14087361 128.37742718 -150.17260742 125.6315918 C-150.17421943 123.88549867 -150.17364191 122.13940186 -150.1706543 120.39331055 C-150.18188828 119.57342651 -150.19312225 118.75354248 -150.20469666 117.90881348 C-150.16029734 114.27583905 -150.04399812 112.19365428 -148.06542969 109.07885742 C-144.8623971 107.11379873 -142.65392976 107.21288578 -138.92456055 107.36206055 C-137.7540918 107.3981543 -136.58362305 107.43424805 -135.37768555 107.47143555 C-134.4856543 107.5178418 -133.59362305 107.56424805 -132.67456055 107.61206055 C-132.65474121 106.83491699 -132.63492188 106.05777344 -132.61450195 105.25708008 C-132.51949046 101.75005364 -132.40971496 98.24364261 -132.29956055 94.73706055 C-132.26862305 93.51374023 -132.23768555 92.29041992 -132.20581055 91.0300293 C-132.16713867 89.86342773 -132.1284668 88.69682617 -132.08862305 87.49487305 C-132.05720215 86.41608887 -132.02578125 85.33730469 -131.9934082 84.22583008 C-131.67456055 81.61206055 -131.67456055 81.61206055 -129.67456055 79.61206055 C-127.19418335 79.37155151 -127.19418335 79.37155151 -124.03149414 79.38500977 C-122.25988419 79.38523636 -122.25988419 79.38523636 -120.45248413 79.38546753 C-119.17225372 79.3957901 -117.89202332 79.40611267 -116.57299805 79.41674805 C-114.61289291 79.42099289 -114.61289291 79.42099289 -112.6131897 79.42532349 C-109.13773974 79.43296279 -105.66245672 79.45261364 -102.18707275 79.47473145 C-98.64125833 79.49518359 -95.09541695 79.50432384 -91.54956055 79.5144043 C-84.59115168 79.5358594 -77.63288131 79.57104387 -70.67456055 79.61206055 C-70.67456055 71.36206055 -70.67456055 63.11206055 -70.67456055 54.61206055 C-74.04674805 54.70487305 -74.04674805 54.70487305 -77.48706055 54.79956055 C-84.17640423 54.98367092 -84.17640423 54.98367092 -86.36100769 53.35401917 C-87.97696866 51.21102421 -88.04916042 50.11081279 -88.046875 47.44775391 C-88.05621819 46.1964695 -88.05621819 46.1964695 -88.06575012 44.91990662 C-88.05654037 44.02296585 -88.04733063 43.12602509 -88.0378418 42.2019043 C-88.03858955 40.81703575 -88.03858955 40.81703575 -88.03935242 39.40419006 C-88.03701234 37.45319465 -88.02728772 35.50219619 -88.01074219 33.55126953 C-87.98712388 30.55758827 -87.99018487 27.56479581 -87.99682617 24.57104492 C-87.99125036 22.67715938 -87.98414108 20.7832776 -87.9753418 18.8894043 C-87.97670891 17.5409568 -87.97670891 17.5409568 -87.97810364 16.16526794 C-87.96857162 15.3342305 -87.95903961 14.50319305 -87.94921875 13.64697266 C-87.94461136 12.91433701 -87.94000397 12.18170135 -87.93525696 11.42686462 C-87.67456055 9.61206055 -87.67456055 9.61206055 -85.67456055 7.61206055 C-83.8217926 7.35136414 -83.8217926 7.35136414 -81.54785156 7.33740234 C-80.27126427 7.32310432 -80.27126427 7.32310432 -78.96888733 7.30851746 C-77.58762917 7.30988457 -77.58762917 7.30988457 -76.1784668 7.3112793 C-75.23398178 7.30699417 -74.28949677 7.30270905 -73.31639099 7.29829407 C-71.316567 7.29254469 -69.31672209 7.29205496 -67.31689453 7.29638672 C-64.25281151 7.29954432 -61.18969579 7.27610329 -58.12573242 7.25073242 C-56.18497844 7.2484593 -54.24422184 7.24775599 -52.3034668 7.2487793 C-50.92524498 7.23496468 -50.92524498 7.23496468 -49.5191803 7.22087097 C-48.66496994 7.22709976 -47.81075958 7.23332855 -46.93066406 7.23974609 C-46.17946793 7.23911667 -45.42827179 7.23848724 -44.65431213 7.23783875 C-42.67456055 7.61206055 -42.67456055 7.61206055 -39.67456055 10.61206055 C-39.67456055 15.23206055 -39.67456055 19.85206055 -39.67456055 24.61206055 C-29.11456055 24.61206055 -18.55456055 24.61206055 -7.67456055 24.61206055 C-7.87159277 18.254152 -7.87159277 18.254152 -8.125 11.8984375 C-8.19537519 7.39215547 -8.08796348 5.21277525 -5.4675293 1.4050293 C-2.67456055 -0.38793945 -2.67456055 -0.38793945 0 0 Z M-39.67456055 36.61206055 C-40.00456055 41.56206055 -40.33456055 46.51206055 -40.67456055 51.61206055 C-43.52051102 54.45801102 -46.48254216 54.06739742 -50.29956055 54.23706055 C-53.95018555 54.42268555 -53.95018555 54.42268555 -57.67456055 54.61206055 C-57.67456055 62.86206055 -57.67456055 71.11206055 -57.67456055 79.61206055 C-41.17456055 79.61206055 -24.67456055 79.61206055 -7.67456055 79.61206055 C-7.67456055 65.42206055 -7.67456055 51.23206055 -7.67456055 36.61206055 C-18.23456055 36.61206055 -28.79456055 36.61206055 -39.67456055 36.61206055 Z " fill="#3C434D" transform="translate(244.674560546875,109.387939453125)"/>
<path d="M0 0 C20.46 0 40.92 0 62 0 C62.71773073 5.02411514 63.09443644 8.15007201 62.5625 12.9375 C62.46066406 13.89527344 62.35882813 14.85304687 62.25390625 15.83984375 C62.17011719 16.55269531 62.08632813 17.26554687 62 18 C45.70022958 25.40898655 45.70022958 25.40898655 38 25 C37.938125 26.051875 37.87625 27.10375 37.8125 28.1875 C37.33574664 32.30958287 35.96757739 35.74207888 34.375 39.5625 C32.30734358 44.65758458 31.40670448 47.72986867 33 53 C33.66 53 34.32 53 35 53 C37.19921875 55.16015625 37.19921875 55.16015625 39.6875 58.0625 C40.51636719 59.00222656 41.34523438 59.94195312 42.19921875 60.91015625 C44 64 44 64 44.01953125 67.5078125 C40.48992135 79.59774067 27.04438901 92.56897012 17 100 C12.90080829 101.36639724 10.6826645 99.8252085 7 98 C6.02675781 97.48050781 5.05351562 96.96101563 4.05078125 96.42578125 C3.00277344 95.87277344 1.95476562 95.31976563 0.875 94.75 C-0.11757813 94.20859375 -1.11015625 93.6671875 -2.1328125 93.109375 C-5.51302809 91.80149867 -6.60770193 91.81722545 -10 93 C-12.71779462 94.21842291 -15.35926871 95.56110408 -18 96.9375 C-26.50341064 101.32256139 -26.50341064 101.32256139 -31 103 C-31.05160278 103.88522339 -31.05160278 103.88522339 -31.10424805 104.78833008 C-31.27414123 107.46526715 -31.48037441 110.13819704 -31.6875 112.8125 C-31.74099609 113.74126953 -31.79449219 114.67003906 -31.84960938 115.62695312 C-31.96079102 116.9659668 -31.96079102 116.9659668 -32.07421875 118.33203125 C-32.13182373 119.15421143 -32.18942871 119.9763916 -32.2487793 120.82348633 C-33 123 -33 123 -35.17797852 124.71875 C-38.20992118 126.0953081 -40.78602955 126.69076174 -44.078125 127.16796875 C-45.23957031 127.33876953 -46.40101563 127.50957031 -47.59765625 127.68554688 C-49.40556641 127.93401367 -49.40556641 127.93401367 -51.25 128.1875 C-53.03470703 128.45336914 -53.03470703 128.45336914 -54.85546875 128.72460938 C-70.92696958 131.02434347 -70.92696958 131.02434347 -77 129 C-77 109.2 -77 89.4 -77 69 C-72.38 68.67 -67.76 68.34 -63 68 C-47.45439292 65.75755375 -35.07387285 59.81210053 -23 50 C-22.34 49.01 -21.68 48.02 -21 47 C-20.34 47 -19.68 47 -19 47 C-19 46.34 -19 45.68 -19 45 C-18.34 45 -17.68 45 -17 45 C-17 44.34 -17 43.68 -17 43 C-16.34 43 -15.68 43 -15 43 C-14.72929687 42.27039063 -14.45859375 41.54078125 -14.1796875 40.7890625 C-13.03888437 38.09193193 -11.71019247 35.83081631 -10.125 33.375 C-3.63779758 22.62613176 -2.2508038 12.75455489 0 0 Z " fill="#3F77A9" transform="translate(330,240)"/>
<path d="M0 0 C1.26972656 0.10699219 2.53945313 0.21398437 3.84765625 0.32421875 C4.51700195 0.38053467 5.18634766 0.43685059 5.87597656 0.49487305 C7.23843 0.61014506 8.60058227 0.72903454 9.96240234 0.8515625 C11.71955798 0.99604659 13.481037 1.08538256 15.2421875 1.16796875 C16.20511719 1.21953125 17.16804688 1.27109375 18.16015625 1.32421875 C19.43632812 1.38029297 19.43632812 1.38029297 20.73828125 1.4375 C22.91015625 2.01171875 22.91015625 2.01171875 24.65234375 3.5390625 C26.09412642 6.37337439 26.25487169 8.86901607 26.52929688 12.00439453 C26.98925023 16.06234177 27.61984452 19.56694095 29.91015625 23.01171875 C35.61461953 27.18302741 45.7984034 31.75013598 53.00585938 30.70898438 C56.94510864 29.26661311 60.3575044 26.47812256 63.77734375 24.07421875 C68.41579847 20.94873639 68.41579847 20.94873639 70.92993164 21.26904297 C74.15306129 22.4778656 76.68485277 24.63449435 79.34765625 26.76171875 C80.25668701 27.48621216 80.25668701 27.48621216 81.18408203 28.2253418 C85.72179542 31.91201368 90.07353045 35.7694932 94.28515625 39.82421875 C94.85032959 40.35047852 95.41550293 40.87673828 95.99780273 41.41894531 C98.55134742 43.95451573 99.83837139 45.55726972 100.40625 49.15234375 C99.90307314 52.05254423 99.29463468 53.58145829 97.59765625 55.94921875 C96.9325 56.97595703 96.9325 56.97595703 96.25390625 58.0234375 C95.06157258 59.7876754 93.83216625 61.52673172 92.59765625 63.26171875 C91.72287795 68.03323673 92.79787405 68.95906459 95.47265625 72.88671875 C96.60380859 74.42585938 96.60380859 74.42585938 97.7578125 75.99609375 C100.59266208 79.96797011 103.91015625 84.96132158 103.91015625 90.01171875 C104.87840332 90.0257373 104.87840332 90.0257373 105.86621094 90.04003906 C108.79829569 90.09380976 111.72879633 90.17744215 114.66015625 90.26171875 C116.18382812 90.28298828 116.18382812 90.28298828 117.73828125 90.3046875 C119.2078125 90.35302734 119.2078125 90.35302734 120.70703125 90.40234375 C121.60776367 90.42329102 122.50849609 90.44423828 123.43652344 90.46582031 C126.71562903 91.18947607 127.87126151 92.37298343 129.91015625 95.01171875 C130.82324219 97.48193359 130.82324219 97.48193359 131.39453125 100.22265625 C131.60722656 101.22039062 131.81992187 102.218125 132.0390625 103.24609375 C132.24402344 104.2825 132.44898438 105.31890625 132.66015625 106.38671875 C132.88058594 107.41539062 133.10101563 108.4440625 133.328125 109.50390625 C134.34267788 114.39392512 135.22083563 118.98906876 134.91015625 124.01171875 C132.26748987 125.33305194 130.27406664 125.14607957 127.31469727 125.15698242 C126.14330704 125.16336227 124.97191681 125.16974213 123.76502991 125.17631531 C122.49421066 125.17742813 121.22339142 125.17854095 119.9140625 125.1796875 C118.61444077 125.1830159 117.31481903 125.1863443 115.97581482 125.18977356 C113.22271901 125.19576508 110.4696546 125.19761343 107.71655273 125.19702148 C104.18790565 125.19691985 100.65945972 125.2105734 97.13086033 125.22779369 C93.76692449 125.24158276 90.40302626 125.2410023 87.0390625 125.2421875 C85.77026749 125.24937302 84.50147247 125.25655853 83.19422913 125.26396179 C82.01968674 125.26088516 80.84514435 125.25780853 79.63500977 125.25463867 C78.59957535 125.25606369 77.56414093 125.25748871 76.49732971 125.25895691 C73.91015625 125.01171875 73.91015625 125.01171875 70.91015625 123.01171875 C70.67402122 120.88650352 70.44654343 118.75986055 70.26953125 116.62890625 C68.122559 100.99334745 57.9842734 85.74311635 46.16015625 75.76171875 C30.64152533 64.07484855 14.89850197 60.44229348 -4.08984375 60.01171875 C-5.37786171 54.07334568 -5.25169861 48.16559893 -5.2578125 42.12109375 C-5.2611409 40.98013245 -5.2644693 39.83917114 -5.26789856 38.66363525 C-5.27294896 36.25981041 -5.27530747 33.85597859 -5.27514648 31.45214844 C-5.27734421 27.76095237 -5.29555062 24.07004993 -5.31445312 20.37890625 C-5.3173851 18.04296977 -5.31937121 15.70703188 -5.3203125 13.37109375 C-5.32749802 12.26280212 -5.33468353 11.1545105 -5.34208679 10.01263428 C-5.33901016 8.99107239 -5.33593353 7.9695105 -5.33276367 6.91699219 C-5.33418869 6.01575623 -5.33561371 5.11452026 -5.33708191 4.18597412 C-4.91172138 0.44527962 -3.61631114 0.01371547 0 0 Z " fill="#CF501C" transform="translate(257.08984375,107.98828125)"/>
<path d="M0 0 C12.58882394 7.86379619 21.56321927 17.90989344 25.9765625 32.3203125 C26.19957031 33.00996094 26.42257812 33.69960937 26.65234375 34.41015625 C30.61089941 48.87100245 27.95001673 62.98218309 21.02734375 75.8828125 C13.43002032 89.17353409 0.57891865 98.24388769 -13.8984375 102.6328125 C-19.49603716 103.88583167 -25.33258681 103.43887189 -31.0234375 103.3203125 C-31.0234375 96.0603125 -31.0234375 88.8003125 -31.0234375 81.3203125 C-27.54036458 80.83203125 -24.05729167 80.34375 -20.57421875 79.85546875 C-17.69869202 79.42208353 -14.86698937 78.92381968 -12.0234375 78.3203125 C-12.0234375 77.6603125 -12.0234375 77.0003125 -12.0234375 76.3203125 C-9.0534375 75.3303125 -9.0534375 75.3303125 -6.0234375 74.3203125 C-6.0234375 73.6603125 -6.0234375 73.0003125 -6.0234375 72.3203125 C-4.940625 71.3303125 -4.940625 71.3303125 -3.8359375 70.3203125 C1.53978519 65.11305975 4.53893857 57.96208147 4.984375 50.546875 C4.96125912 43.95884836 4.18494172 39.17909194 0.9765625 33.3203125 C0.9765625 32.3303125 0.9765625 31.3403125 0.9765625 30.3203125 C0.3165625 30.3203125 -0.3434375 30.3203125 -1.0234375 30.3203125 C-2.11063431 29.10970416 -3.14398374 27.85040706 -4.1484375 26.5703125 C-10.7311963 18.95100477 -17.30535099 17.83127248 -27.14453125 16.71484375 C-30.0234375 16.3203125 -30.0234375 16.3203125 -31.0234375 15.3203125 C-31.11029353 13.75858505 -31.13045969 12.19301906 -31.12109375 10.62890625 C-31.11787109 9.68466797 -31.11464844 8.74042969 -31.11132812 7.76757812 C-31.10294922 6.77435547 -31.09457031 5.78113281 -31.0859375 4.7578125 C-31.08142578 3.76072266 -31.07691406 2.76363281 -31.07226562 1.73632812 C-31.06043757 -0.73573599 -31.04395599 -3.20768268 -31.0234375 -5.6796875 C-20.709747 -8.47868719 -9.1000427 -5.05557928 0 0 Z " fill="#3B424D" transform="translate(284.0234375,191.6796875)"/>
<path d="M0 0 C0.33 0 0.66 0 1 0 C1 6.93 1 13.86 1 21 C-10.22 21 -21.44 21 -33 21 C-32.505 25.95 -32.505 25.95 -32 31 C-31.86869082 33.8256725 -31.77187028 36.61350048 -31.75 39.4375 C-31.729375 40.13037109 -31.70875 40.82324219 -31.6875 41.53710938 C-31.66614656 44.29971064 -31.73119334 46.49078889 -33.03515625 48.9609375 C-36.13753355 50.6015585 -39.27634411 50.31076851 -42.6875 50.1875 C-45.100625 50.125625 -47.51375 50.06375 -50 50 C-50 58.25 -50 66.5 -50 75 C-50.33 75 -50.66 75 -51 75 C-51 66.42 -51 57.84 -51 49 C-54.63 49 -58.26 49 -62 49 C-62 57.58 -62 66.16 -62 75 C-62.33 75 -62.66 75 -63 75 C-63 66.75 -63 58.5 -63 50 C-66.3721875 50.0928125 -66.3721875 50.0928125 -69.8125 50.1875 C-76.50184369 50.37161038 -76.50184369 50.37161038 -78.68644714 48.74195862 C-80.30240812 46.59896366 -80.37459987 45.49875224 -80.37231445 42.83569336 C-80.37854324 42.00150375 -80.38477203 41.16731415 -80.39118958 40.30784607 C-80.38197983 39.4109053 -80.37277008 38.51396454 -80.36328125 37.58984375 C-80.36377975 36.66659805 -80.36427826 35.74335236 -80.36479187 34.79212952 C-80.36245179 32.8411341 -80.35272717 30.89013564 -80.33618164 28.93920898 C-80.31256333 25.94552772 -80.31562432 22.95273527 -80.32226562 19.95898438 C-80.31668981 18.06509883 -80.30958054 16.17121706 -80.30078125 14.27734375 C-80.30169266 13.37837875 -80.30260406 12.47941376 -80.30354309 11.5532074 C-80.29401108 10.72216995 -80.28447906 9.89113251 -80.2746582 9.03491211 C-80.27005081 8.30227646 -80.26544342 7.56964081 -80.26069641 6.81480408 C-80 5 -80 5 -78 3 C-76.14723206 2.73930359 -76.14723206 2.73930359 -73.87329102 2.7253418 C-73.02223282 2.71580978 -72.17117462 2.70627777 -71.29432678 2.69645691 C-69.91306862 2.69782402 -69.91306862 2.69782402 -68.50390625 2.69921875 C-67.55942123 2.69493362 -66.61493622 2.6906485 -65.64183044 2.68623352 C-63.64200645 2.68048414 -61.64216155 2.67999442 -59.64233398 2.68432617 C-56.57825096 2.68748377 -53.51513525 2.66404274 -50.45117188 2.63867188 C-48.51041789 2.63639875 -46.5696613 2.63569544 -44.62890625 2.63671875 C-43.25068443 2.62290413 -43.25068443 2.62290413 -41.84461975 2.60881042 C-40.99040939 2.61503922 -40.13619904 2.62126801 -39.25610352 2.62768555 C-38.50490738 2.62705612 -37.75371124 2.6264267 -36.97975159 2.6257782 C-35 3 -35 3 -32 6 C-32 10.62 -32 15.24 -32 20 C-21.44 20 -10.88 20 0 20 C0 13.4 0 6.8 0 0 Z " fill="#467BAA" transform="translate(237,114)"/>
<path d="M0 0 C0.33 1.32 0.66 2.64 1 4 C4.63 4 8.26 4 12 4 C12.33 3.34 12.66 2.68 13 2 C15.77315591 2.05996013 18.54089706 2.14693312 21.3125 2.25 C22.09818359 2.26417969 22.88386719 2.27835938 23.69335938 2.29296875 C24.8293457 2.34130859 24.8293457 2.34130859 25.98828125 2.390625 C26.68477783 2.41157227 27.38127441 2.43251953 28.09887695 2.45410156 C30 3 30 3 31.72583008 4.48925781 C33.59198108 8.16649424 33.4282973 11.74983046 33.3984375 15.78125 C33.40130768 16.63174927 33.40417786 17.48224854 33.40713501 18.35852051 C33.40917343 20.15389676 33.40365906 21.94929533 33.39111328 23.74462891 C33.37505605 26.49041472 33.39096903 29.23472863 33.41015625 31.98046875 C33.40817378 33.72656574 33.40433002 35.47266182 33.3984375 37.21875 C33.40754654 38.44857605 33.40754654 38.44857605 33.4168396 39.70324707 C33.37834158 42.82818771 33.15697408 45.5668289 32.08837891 48.515625 C28.49092049 51.0726214 24.48170597 50.56833582 20.1875 50.53125 C19.22223389 50.5350769 18.25696777 50.53890381 17.26245117 50.54284668 C15.22150632 50.54556882 13.18052676 50.53818656 11.13964844 50.52148438 C8.01158029 50.50007924 4.88580902 50.52127604 1.7578125 50.546875 C-0.22396341 50.54423178 -2.2057379 50.53910692 -4.1875 50.53125 C-5.5938269 50.54339539 -5.5938269 50.54339539 -7.02856445 50.55578613 C-13.34744012 50.46431411 -13.34744012 50.46431411 -16.08618164 48.515625 C-17.44348785 44.77913469 -17.44764509 41.14309776 -17.43359375 37.21875 C-17.4388356 36.36825073 -17.44407745 35.51775146 -17.44947815 34.64147949 C-17.45589191 32.84612112 -17.4545697 31.05072069 -17.44604492 29.25537109 C-17.43752894 26.50933057 -17.46631307 23.76536664 -17.49804688 21.01953125 C-17.49965888 19.27343812 -17.49908137 17.52734132 -17.49609375 15.78125 C-17.50732773 14.96136597 -17.51856171 14.14148193 -17.53013611 13.29675293 C-17.48393816 9.51660525 -17.43700371 7.6032063 -15.17114258 4.47558594 C-12.12016592 2.40203338 -9.89635176 2.60414593 -6.25 2.75 C-5.07953125 2.78609375 -3.9090625 2.8221875 -2.703125 2.859375 C-1.81109375 2.90578125 -0.9190625 2.9521875 0 3 C0 2.01 0 1.02 0 0 Z " fill="#CE501C" transform="translate(112,214)"/>
<path d="M0 0 C5.94801317 3.38087394 9.4260572 8.65317161 11.5625 15.0625 C12.48148812 23.68785989 11.11850691 29.70780313 6.5625 37.0625 C5.9025 37.0625 5.2425 37.0625 4.5625 37.0625 C4.5625 37.7225 4.5625 38.3825 4.5625 39.0625 C3.9025 39.0625 3.2425 39.0625 2.5625 39.0625 C2.5625 39.7225 2.5625 40.3825 2.5625 41.0625 C-6.18998154 44.93954981 -13.13741435 46.21741861 -22.25 42.8125 C-29.18396805 39.00561558 -32.81579234 33.39258059 -35.4375 26.0625 C-36.7353592 19.36554655 -35.20050307 14.14308721 -31.92578125 8.2578125 C-29.74021708 5.03396194 -27.6816298 3.24732211 -24.4375 1.0625 C-23.591875 0.464375 -22.74625 -0.13375 -21.875 -0.75 C-14.67943589 -3.23574033 -6.99810732 -3.05968686 0 0 Z " fill="#3B424C" transform="translate(268.4375,218.9375)"/>
<path d="M0 0 C9 3 9 3 10 4 C10.09529612 7.01350238 10.12551904 10.00404106 10.11352539 13.01782227 C10.11367142 13.96406464 10.11381744 14.91030701 10.1139679 15.88522339 C10.11326836 19.02897392 10.10547409 22.17266601 10.09765625 25.31640625 C10.09579221 27.48974068 10.09436824 29.66307552 10.09336853 31.83641052 C10.08954221 37.56901195 10.07971097 43.30158823 10.06866455 49.03417969 C10.05845287 54.87890279 10.05387143 60.72362993 10.04882812 66.56835938 C10.0380888 78.045584 10.02101102 89.52278991 10 101 C7 102 7 102 5 101.4375 C2.0735301 99.33409976 1.32562165 97.36294904 0 94 C-0.3949207 90.66296405 -0.35010235 87.36414699 -0.29296875 84.0078125 C-0.28872391 83.06187225 -0.28447906 82.11593201 -0.28010559 81.1413269 C-0.26338306 78.13558867 -0.22574263 75.1305338 -0.1875 72.125 C-0.17244486 70.08073889 -0.15875791 68.03646721 -0.14648438 65.9921875 C-0.11350055 60.99453046 -0.06176253 55.99738089 0 51 C-5.94 51 -11.88 51 -18 51 C-17.34 49.35 -16.68 47.7 -16 46 C-16.66 44.02 -17.32 42.04 -18 40 C-9.585 39.505 -9.585 39.505 -1 39 C-0.67 26.13 -0.34 13.26 0 0 Z " fill="#4E545C" transform="translate(237,267)"/>
<path d="M0 0 C0.33 1.32 0.66 2.64 1 4 C4.63 4 8.26 4 12 4 C12.33 3.34 12.66 2.68 13 2 C17.95 2.33 22.9 2.66 28 3 C28 3.33 28 3.66 28 4 C19.39421862 4.87019244 10.8960185 5.12607367 2.25 5.0625 C1.0640625 5.05798828 -0.121875 5.05347656 -1.34375 5.04882812 C-4.22922228 5.03719316 -7.11458213 5.0208484 -10 5 C-10 5.66 -10 6.32 -10 7 C-11.65 7.33 -13.3 7.66 -15 8 C-15 20.87 -15 33.74 -15 47 C-13.35 47 -11.7 47 -10 47 C-10 47.66 -10 48.32 -10 49 C3.2 49 16.4 49 30 49 C30 49.33 30 49.66 30 50 C23.78870302 50.09877896 17.57786182 50.17142631 11.3659668 50.21972656 C9.25227903 50.23985847 7.13864706 50.26716643 5.02514648 50.30175781 C1.98928065 50.35020627 -1.04584978 50.37295276 -4.08203125 50.390625 C-5.5024749 50.42159271 -5.5024749 50.42159271 -6.95161438 50.45318604 C-13.35414652 50.45538246 -13.35414652 50.45538246 -16.09277344 48.52441406 C-17.43748351 44.78267505 -17.44765077 41.14468596 -17.43359375 37.21875 C-17.4388356 36.36825073 -17.44407745 35.51775146 -17.44947815 34.64147949 C-17.45589191 32.84612112 -17.4545697 31.05072069 -17.44604492 29.25537109 C-17.43752894 26.50933057 -17.46631307 23.76536664 -17.49804688 21.01953125 C-17.49965888 19.27343812 -17.49908137 17.52734132 -17.49609375 15.78125 C-17.50732773 14.96136597 -17.51856171 14.14148193 -17.53013611 13.29675293 C-17.48393816 9.51660525 -17.43700371 7.6032063 -15.17114258 4.47558594 C-12.12016592 2.40203338 -9.89635176 2.60414593 -6.25 2.75 C-5.07953125 2.78609375 -3.9090625 2.8221875 -2.703125 2.859375 C-1.81109375 2.90578125 -0.9190625 2.9521875 0 3 C0 2.01 0 1.02 0 0 Z " fill="#CE8567" transform="translate(112,214)"/>
<path d="M0 0 C4.29 0 8.58 0 13 0 C13 0.33 13 0.66 13 1 C9.04 1 5.08 1 1 1 C1 20.14 1 39.28 1 59 C1.99 58.505 1.99 58.505 3 58 C4.8863912 57.915085 6.77578515 57.892807 8.6640625 57.90234375 C9.78554688 57.90556641 10.90703125 57.90878906 12.0625 57.91210938 C13.238125 57.92048828 14.41375 57.92886719 15.625 57.9375 C16.80835938 57.94201172 17.99171875 57.94652344 19.2109375 57.95117188 C22.14067507 57.96298533 25.07031272 57.97945742 28 58 C28 58.33 28 58.66 28 59 C6.04952215 62.01650738 6.04952215 62.01650738 0 60 C0 40.2 0 20.4 0 0 Z " fill="#7190A6" transform="translate(253,309)"/>
<path d="M0 0 C17.82 0 35.64 0 54 0 C54 0.33 54 0.66 54 1 C48.11608852 1.83446559 42.36423301 2.18526006 36.42578125 2.28125 C35.09549141 2.30886414 35.09549141 2.30886414 33.73832703 2.33703613 C29.97727475 2.41505879 26.21606523 2.48348031 22.45483398 2.55224609 C19.69506429 2.6041152 16.93543907 2.66127907 14.17578125 2.71875 C13.32985916 2.73232544 12.48393707 2.74590088 11.61238098 2.7598877 C7.62382281 2.84379722 3.89359103 3.02499862 0 4 C0 2.68 0 1.36 0 0 Z " fill="#436D91" transform="translate(330,241)"/>
<path d="M0 0 C2.29013653 3.4352048 2.17842973 4.985331 2 9 C-0.43915121 10.2195756 -1.91115147 10.08586292 -4.63330078 10.02172852 C-5.59414581 10.00163223 -6.55499084 9.98153595 -7.54495239 9.96083069 C-8.58457123 9.93379562 -9.62419006 9.90676056 -10.6953125 9.87890625 C-11.75789276 9.85529526 -12.82047302 9.83168427 -13.91525269 9.80735779 C-17.31863397 9.73060988 -20.72179404 9.64663335 -24.125 9.5625 C-26.42837449 9.50929046 -28.73175987 9.45655 -31.03515625 9.40429688 C-36.69024188 9.27497972 -42.34516242 9.13972279 -48 9 C-48 8.67 -48 8.34 -48 8 C-32.16 8 -16.32 8 0 8 C0 5.36 0 2.72 0 0 Z " fill="#C87354" transform="translate(390,223)"/>
<path d="M0 0 C2.29412724 0.06588877 4.58626046 0.20461094 6.875 0.375 C7.88252319 0.44835571 7.88252319 0.44835571 8.91040039 0.52319336 C14.61294927 0.94673383 20.30886123 1.4439012 26 2 C26.33 2.99 26.66 3.98 27 5 C26.44513916 4.83773926 25.89027832 4.67547852 25.31860352 4.50830078 C22.77957748 3.9516774 20.50082872 3.87051189 17.90234375 3.8671875 C16.93619141 3.86589844 15.97003906 3.86460938 14.97460938 3.86328125 C13.47124023 3.86908203 13.47124023 3.86908203 11.9375 3.875 C10.42833008 3.86919922 10.42833008 3.86919922 8.88867188 3.86328125 C7.92380859 3.86457031 6.95894531 3.86585937 5.96484375 3.8671875 C4.64407837 3.86887939 4.64407837 3.86887939 3.29663086 3.87060547 C0.83749335 3.90841227 0.83749335 3.90841227 -2 5 C-1.125 1.125 -1.125 1.125 0 0 Z " fill="#C47341" transform="translate(254,108)"/>
<path d="M0 0 C16.17 0 32.34 0 49 0 C49 0.33 49 0.66 49 1 C47.81035645 1.02505615 46.62071289 1.0501123 45.39501953 1.07592773 C40.94066361 1.17078538 36.48643552 1.270808 32.03222656 1.37231445 C30.11200979 1.41536936 28.19176194 1.45706223 26.27148438 1.49731445 C23.49599884 1.55573814 20.72066559 1.61921644 17.9453125 1.68359375 C17.1001004 1.70030624 16.25488831 1.71701874 15.38406372 1.73423767 C9.55158025 1.87608721 3.79680078 2.34512505 -2 3 C-1.34 2.67 -0.68 2.34 0 2 C0 1.34 0 0.68 0 0 Z " fill="#BF4A1D" transform="translate(334,230)"/>
<path d="M0 0 C-0.25 1.875 -0.25 1.875 -1 4 C-3.0625 5.25 -3.0625 5.25 -5 6 C-4.01 6 -3.02 6 -2 6 C-2.33 7.32 -2.66 8.64 -3 10 C-3.66 9.67 -4.32 9.34 -5 9 C-5.33 9.33 -5.66 9.66 -6 10 C-6.99 10.33 -7.98 10.66 -9 11 C-9.33 11.99 -9.66 12.98 -10 14 C-10.99 13.67 -11.98 13.34 -13 13 C-12.57847656 12.38511719 -12.15695312 11.77023437 -11.72265625 11.13671875 C-10.90087891 9.92435547 -10.90087891 9.92435547 -10.0625 8.6875 C-9.51722656 7.88699219 -8.97195313 7.08648437 -8.41015625 6.26171875 C-6.86162674 3.9741857 -6.86162674 3.9741857 -6 1 C-3 0 -3 0 0 0 Z " fill="#5E86AB" transform="translate(328,268)"/>
<path d="M0 0 C0.33 0 0.66 0 1 0 C1.02685412 2.31243792 1.04632841 4.6249627 1.0625 6.9375 C1.07410156 8.22527344 1.08570313 9.51304687 1.09765625 10.83984375 C1 14 1 14 0 15 C-3.02977804 15.08871273 -6.03667022 15.1151935 -9.06640625 15.09765625 C-9.97502914 15.0962413 -10.88365204 15.09482635 -11.81980896 15.09336853 C-14.73407221 15.08775193 -17.64825981 15.07519665 -20.5625 15.0625 C-22.53320202 15.05748714 -24.50390524 15.05292386 -26.47460938 15.04882812 C-31.31643559 15.03777711 -36.15820495 15.02050138 -41 15 C-41 14.67 -41 14.34 -41 14 C-28.13 14 -15.26 14 -2 14 C-0.99740493 10.99221479 -0.69685358 8.46179353 -0.4375 5.3125 C-0.35371094 4.31863281 -0.26992187 3.32476562 -0.18359375 2.30078125 C-0.09271484 1.16189453 -0.09271484 1.16189453 0 0 Z " fill="#B94F27" transform="translate(143,248)"/>
<path d="M0 0 C0.66 0 1.32 0 2 0 C2.21914063 1.20398438 2.43828125 2.40796875 2.6640625 3.6484375 C2.98297536 5.22424224 3.30336507 6.7997486 3.625 8.375 C3.76550781 9.1690625 3.90601563 9.963125 4.05078125 10.78125 C4.5249102 13.01913865 4.98483278 14.94801777 6 17 C9.00435999 18.65728879 9.00435999 18.65728879 12 19 C9 21 9 21 5 21 C2.5475201 19.33642972 2.04578444 18.16967176 1.26953125 15.29296875 C1.11871094 14.26816406 0.96789062 13.24335937 0.8125 12.1875 C0.65394531 11.17042969 0.49539063 10.15335938 0.33203125 9.10546875 C0.00461976 6.04320835 -0.05979285 3.07703207 0 0 Z " fill="#C96B49" transform="translate(281,114)"/>
<path d="M0 0 C14.19 0 28.38 0 43 0 C43 0.33 43 0.66 43 1 C41.92105469 1.01981934 40.84210938 1.03963867 39.73046875 1.06005859 C35.69720567 1.1365856 31.6642814 1.22522737 27.63134766 1.31738281 C25.89150724 1.35547915 24.15159324 1.39036447 22.41162109 1.421875 C19.89914795 1.46794901 17.387173 1.5258695 14.875 1.5859375 C13.72294067 1.60326431 13.72294067 1.60326431 12.54760742 1.62094116 C7.42696483 1.7584048 2.93220622 2.60547741 -2 4 C-1.34 2.68 -0.68 1.36 0 0 Z " fill="#6A89A4" transform="translate(159,117)"/>
<path d="M0 0 C8.25 0 16.5 0 25 0 C25 0.33 25 0.66 25 1 C8.29157175 3.29612756 8.29157175 3.29612756 0 3 C0 2.01 0 1.02 0 0 Z " fill="#7497B5" transform="translate(256,367)"/>
<path d="M0 0 C1.98 0 3.96 0 6 0 C5.56826496 6.15222436 4.34594658 9.81917949 1 15 C0.34 13.68 -0.32 12.36 -1 11 C0.33333333 9 1.66666667 7 3 5 C2.34 5 1.68 5 1 5 C0.67 3.35 0.34 1.7 0 0 Z " fill="#41484F" transform="translate(274,241)"/>
<path d="M0 0 C3.78214542 4.2023838 9 11.09443215 9 17 C8.01 17 7.02 17 6 17 C6 15.35 6 13.7 6 12 C4.68 12 3.36 12 2 12 C0.40861915 7.82262526 -0.21278058 4.46839215 0 0 Z " fill="#C96E4D" transform="translate(352,181)"/>
<path d="M0 0 C0.33 0 0.66 0 1 0 C1.19430855 2.6246601 1.38073238 5.24946765 1.5625 7.875 C1.61857422 8.62136719 1.67464844 9.36773437 1.73242188 10.13671875 C2.11328125 15.7734375 2.11328125 15.7734375 1 18 C-2.63 18 -6.26 18 -10 18 C-10 17.01 -10 16.02 -10 15 C-5.5058921 13.71596917 -4.76312838 14.09474865 0 16 C0 10.72 0 5.44 0 0 Z " fill="#3A3336" transform="translate(123,200)"/>
<path d="M0 0 C0.763125 0.165 1.52625 0.33 2.3125 0.5 C5.03596236 1.09145396 5.03596236 1.09145396 8 1 C8 1.99 8 2.98 8 4 C3.82262526 5.59138085 0.46839215 6.21278058 -4 6 C-3 3 -3 3 0 1 C0 0.67 0 0.34 0 0 Z " fill="#4A7AA3" transform="translate(377,257)"/>
<path d="M0 0 C0.66 0.33 1.32 0.66 2 1 C0.35 4.63 -1.3 8.26 -3 12 C-2.01 13.32 -1.02 14.64 0 16 C-0.33 16.99 -0.66 17.98 -1 19 C-1.66 19 -2.32 19 -3 19 C-4.82306387 14.49595984 -5.10449753 11.71921673 -4 7 C-3.814375 6.05125 -3.62875 5.1025 -3.4375 4.125 C-3.293125 3.42375 -3.14875 2.7225 -3 2 C-2.01 2 -1.02 2 0 2 C0 1.34 0 0.68 0 0 Z " fill="#C26341" transform="translate(352,163)"/>
<path d="M0 0 C1.32 0 2.64 0 4 0 C4 0.66 4 1.32 4 2 C8.455 1.505 8.455 1.505 13 1 C12.67 1.66 12.34 2.32 12 3 C10.07421875 3.6328125 10.07421875 3.6328125 7.6875 4.125 C6.90761719 4.29257812 6.12773437 4.46015625 5.32421875 4.6328125 C3 5 3 5 -1 5 C-0.67 3.35 -0.34 1.7 0 0 Z " fill="#467BA9" transform="translate(283,362)"/>
<path d="M0 0 C-0.33 1.65 -0.66 3.3 -1 5 C-3.97 5 -6.94 5 -10 5 C-10 4.01 -10 3.02 -10 2 C-6.49223216 0.39644899 -3.85645121 -0.22036864 0 0 Z " fill="#3871A4" transform="translate(283,362)"/>
<path d="M0 0 C1.32 0.33 2.64 0.66 4 1 C3.01 1.33 2.02 1.66 1 2 C0.34 8.6 -0.32 15.2 -1 22 C-1.33 22 -1.66 22 -2 22 C-3.66664671 13.87509727 -3.79608606 7.43400188 0 0 Z " fill="#6E98B2" transform="translate(298,341)"/>
<path d="M0 0 C0.33 0 0.66 0 1 0 C1.20349525 7.94762021 1.33431004 15.34865042 -1 23 C-1.66 23.33 -2.32 23.66 -3 24 C-3 14 -3 14 -1 12 C-0.53603307 9.10776497 -0.53603307 9.10776497 -0.375 5.875 C-0.30023438 4.77929688 -0.22546875 3.68359375 -0.1484375 2.5546875 C-0.09945313 1.71164063 -0.05046875 0.86859375 0 0 Z M-6 17 C-3 18 -3 18 -3 18 Z " fill="#6E7178" transform="translate(311,234)"/>
<path d="M0 0 C7.59 0 15.18 0 23 0 C23 0.66 23 1.32 23 2 C24.98 2 26.96 2 29 2 C28.67 2.66 28.34 3.32 28 4 C26.081875 3.5359375 26.081875 3.5359375 24.125 3.0625 C16.18747712 1.44517236 8.07214961 1.33414127 0 1 C0 0.67 0 0.34 0 0 Z " fill="#D88B5F" transform="translate(253,167)"/>
<path d="M0 0 C4.24822374 0.47202486 6.19989709 2.96655518 9 6 C7.8553125 5.9690625 7.8553125 5.9690625 6.6875 5.9375 C3.89814214 5.87057159 3.89814214 5.87057159 1 7 C1 5.68 1 4.36 1 3 C0.01 3.33 -0.98 3.66 -2 4 C-1.34 2.68 -0.68 1.36 0 0 Z " fill="#C4613B" transform="translate(326,129)"/>
<path d="M0 0 C2 1 2 1 3 3 C1.2097939 3.67057887 -0.58221489 4.3363469 -2.375 5 C-3.37273437 5.37125 -4.37046875 5.7425 -5.3984375 6.125 C-8 7 -8 7 -10 7 C-10.33 5.35 -10.66 3.7 -11 2 C-9.39125 2.3403125 -9.39125 2.3403125 -7.75 2.6875 C-4.07021424 3.35775825 -4.07021424 3.35775825 -1.5625 1.5625 C-1.046875 1.046875 -0.53125 0.53125 0 0 Z " fill="#C75D37" transform="translate(315,136)"/>
<path d="M0 0 C2.00124361 0.32578384 4.00102872 0.66055205 6 1 C6.886875 1.144375 7.77375 1.28875 8.6875 1.4375 C11 2 11 2 14 4 C9.71 4 5.42 4 1 4 C0.67 2.68 0.34 1.36 0 0 Z " fill="#B8562D" transform="translate(252,163)"/>
<path d="M0 0 C2.31 0 4.62 0 7 0 C2.06033192 4.34690791 -3.56685067 5.31381216 -10 5 C-9.360625 4.896875 -8.72125 4.79375 -8.0625 4.6875 C-7.381875 4.460625 -6.70125 4.23375 -6 4 C-5.67 3.01 -5.34 2.02 -5 1 C-3.68 1.66 -2.36 2.32 -1 3 C-0.67 2.01 -0.34 1.02 0 0 Z " fill="#82868A" transform="translate(264,259)"/>
<path d="M0 0 C0.66 0.99 1.32 1.98 2 3 C1.67 3.99 1.34 4.98 1 6 C1.99 5.67 2.98 5.34 4 5 C4.99 5.66 5.98 6.32 7 7 C2.375 10 2.375 10 -1 10 C-0.67 6.7 -0.34 3.4 0 0 Z " fill="#54595E" transform="translate(238,203)"/>
<path d="M0 0 C-1.49097658 3.7952131 -3.75700849 5.61042731 -7 8 C-7 7.01 -7 6.02 -7 5 C-7.66 4.67 -8.32 4.34 -9 4 C-6.31059578 0.90718514 -4.07621501 0 0 0 Z " fill="#5B88AC" transform="translate(356,330)"/>
<path d="M0 0 C0.66 0.33 1.32 0.66 2 1 C1.979375 1.928125 1.95875 2.85625 1.9375 3.8125 C1.84230396 7.02286011 1.84230396 7.02286011 3 10 C3.66 10 4.32 10 5 10 C4.34 11.32 3.68 12.64 3 14 C0.24665445 10.04954769 -0.63820511 6.79378225 -1 2 C-0.67 1.34 -0.34 0.68 0 0 Z " fill="#678CAC" transform="translate(360,283)"/>
<path d="M0 0 C5.94 0 11.88 0 18 0 C18 0.33 18 0.66 18 1 C11.4 1.66 4.8 2.32 -2 3 C-1.34 2.67 -0.68 2.34 0 2 C0 1.34 0 0.68 0 0 Z " fill="#C73F19" transform="translate(334,230)"/>
<path d="M0 0 C-0.33 1.32 -0.66 2.64 -1 4 C-1.66 4 -2.32 4 -3 4 C-3.33 3.01 -3.66 2.02 -4 1 C-7.96 0.67 -11.92 0.34 -16 0 C-16 -0.33 -16 -0.66 -16 -1 C-14.08496326 -1.22281874 -12.16783494 -1.42771076 -10.25 -1.625 C-9.18265625 -1.74101562 -8.1153125 -1.85703125 -7.015625 -1.9765625 C-3.96207601 -2.00029475 -2.53837579 -1.61420985 0 0 Z " fill="#B4562D" transform="translate(144,219)"/>
<path d="M0 0 C1.12894876 0.93274109 2.25300876 1.87140122 3.375 2.8125 C4.00148438 3.33457031 4.62796875 3.85664063 5.2734375 4.39453125 C7 6 7 6 9 9 C5.3047018 9 3.88626661 8.27863153 1 6 C0.1875 2.8125 0.1875 2.8125 0 0 Z " fill="#C36241" transform="translate(346,144)"/>
<path d="M0 0 C1.134375 0.020625 2.26875 0.04125 3.4375 0.0625 C0.14425477 2.25799682 -3.04437121 4.24061188 -6.5625 6.0625 C-7.5525 5.7325 -8.5425 5.4025 -9.5625 5.0625 C-8.758125 4.423125 -7.95375 3.78375 -7.125 3.125 C-3.31467391 0.05815217 -3.31467391 0.05815217 0 0 Z " fill="#668EAB" transform="translate(321.5625,329.9375)"/>
<path d="M0 0 C0.66 0.33 1.32 0.66 2 1 C2.33 1 2.66 1 3 1 C3.99 1.33 4.98 1.66 6 2 C5.01 2.495 5.01 2.495 4 3 C3.67 3.99 3.34 4.98 3 6 C2.34 6 1.68 6 1 6 C0.67 6.66 0.34 7.32 0 8 C-0.38063221 5.6739143 -0.71269945 3.33944736 -1 1 C-0.67 0.67 -0.34 0.34 0 0 Z " fill="#525960" transform="translate(171,292)"/>
<path d="M0 0 C-0.875 3.875 -0.875 3.875 -2 5 C-3.66617115 5.04063832 -5.33388095 5.042721 -7 5 C-6.6875 3.0625 -6.6875 3.0625 -6 1 C-3 0 -3 0 0 0 Z " fill="#5080A8" transform="translate(328,268)"/>
<path d="M0 0 C0.66 1.32 1.32 2.64 2 4 C0.68 4 -0.64 4 -2 4 C-2.33 4.99 -2.66 5.98 -3 7 C-4.65 7 -6.3 7 -8 7 C-5.4837822 4.39391727 -2.94865641 2.10618315 0 0 Z " fill="#6087A9" transform="translate(307,290)"/>
<path d="M0 0 C0.99 0.33 1.98 0.66 3 1 C3.33 1.99 3.66 2.98 4 4 C4.66 4.33 5.32 4.66 6 5 C5.67 6.65 5.34 8.3 5 10 C3 9 3 9 2.1484375 6.93359375 C1.89320313 6.10988281 1.63796875 5.28617188 1.375 4.4375 C1.11460937 3.61121094 0.85421875 2.78492188 0.5859375 1.93359375 C0.39257812 1.29550781 0.19921875 0.65742188 0 0 Z " fill="#C0684A" transform="translate(321,205)"/>
<path d="M0 0 C1.45792884 -0.05399736 2.91642712 -0.09279177 4.375 -0.125 C5.18710937 -0.14820313 5.99921875 -0.17140625 6.8359375 -0.1953125 C9 0 9 0 11 2 C9.625 3.5 9.625 3.5 8 5 C7.34 5 6.68 5 6 5 C5.67 4.01 5.34 3.02 5 2 C3.35 1.67 1.7 1.34 0 1 C0 0.67 0 0.34 0 0 Z " fill="#525962" transform="translate(260,186)"/>
<path d="M0 0 C3.875 0.875 3.875 0.875 5 2 C4.6875 5.5 4.6875 5.5 4 9 C3.01 9.495 3.01 9.495 2 10 C2.33 7.69 2.66 5.38 3 3 C2.34 3 1.68 3 1 3 C0.67 2.01 0.34 1.02 0 0 Z " fill="#5F8CAA" transform="translate(369,302)"/>
<path d="M0 0 C5.61 0 11.22 0 17 0 C17.33 0.66 17.66 1.32 18 2 C17.34 2.66 16.68 3.32 16 4 C15.67 3.01 15.34 2.02 15 1 C10.05 1 5.1 1 0 1 C0 0.67 0 0.34 0 0 Z " fill="#B74F2F" transform="translate(368,200)"/>
<path d="M0 0 C3.96 0 7.92 0 12 0 C12 0.33 12 0.66 12 1 C5.07 2.485 5.07 2.485 -2 4 C-1.34 2.68 -0.68 1.36 0 0 Z " fill="#7190AF" transform="translate(159,117)"/>
<path d="M0 0 C-5.75 5 -5.75 5 -8 5 C-7.75 3.125 -7.75 3.125 -7 1 C-4.09342573 -1.03460199 -3.47133392 -1.15711131 0 0 Z " fill="#60666C" transform="translate(294,281)"/>
<path d="M0 0 C0 1.98 0 3.96 0 6 C-1.65 5.67 -3.3 5.34 -5 5 C-4.625 3.0625 -4.625 3.0625 -4 1 C-2 0 -2 0 0 0 Z " fill="#4676A0" transform="translate(367,267)"/>
<path d="M0 0 C0.66 0 1.32 0 2 0 C0.90931332 3.77545388 0.0916909 6.47043472 -3 9 C-3.625 7.1875 -3.625 7.1875 -4 5 C-2 2 -2 2 0 0 Z " fill="#545960" transform="translate(277,247)"/>
<path d="M0 0 C0.66 0 1.32 0 2 0 C2.33 1.98 2.66 3.96 3 6 C4.32 6 5.64 6 7 6 C7 6.66 7 7.32 7 8 C6.01 8.33 5.02 8.66 4 9 C3.01 8.34 2.02 7.68 1 7 C0.3125 3.375 0.3125 3.375 0 0 Z " fill="#B15D35" transform="translate(327,224)"/>
<path d="M0 0 C2.64 0 5.28 0 8 0 C8 0.99 8 1.98 8 3 C7.01 3.495 7.01 3.495 6 4 C3.96855359 3.06553465 1.96466413 2.06775224 0 1 C0 0.67 0 0.34 0 0 Z " fill="#CF7251" transform="translate(285,172)"/>
<path d="M0 0 C0.66 0.33 1.32 0.66 2 1 C2.36923077 6.53846154 2.36923077 6.53846154 0.5 8.875 C-0.2425 9.431875 -0.2425 9.431875 -1 10 C-1.125 2.25 -1.125 2.25 0 0 Z " fill="#BF6F53" transform="translate(355,153)"/>
<path d="M0 0 C-0.33 0.66 -0.66 1.32 -1 2 C-1.66 1.67 -2.32 1.34 -3 1 C-3.66 2.32 -4.32 3.64 -5 5 C-5.66 4.67 -6.32 4.34 -7 4 C-7 2.68 -7 1.36 -7 0 C-3.98968256 -0.93423645 -3.13349732 -1.04449911 0 0 Z " fill="#3D719E" transform="translate(336,250)"/>
<path d="M0 0 C-1.33333333 0.66666667 -2.66666667 1.33333333 -4 2 C-4.5775 2.391875 -5.155 2.78375 -5.75 3.1875 C-9.29789788 4.46868535 -12.31002088 3.61499652 -16 3 C-16 2.67 -16 2.34 -16 2 C-14.27192682 1.66104344 -12.54248026 1.32908475 -10.8125 1 C-9.84957031 0.814375 -8.88664062 0.62875 -7.89453125 0.4375 C-5.2065794 0.03122388 -2.71228981 -0.07933572 0 0 Z " fill="#688AA8" transform="translate(392,240)"/>
<path d="M0 0 C0.33 0.66 0.66 1.32 1 2 C3.01669827 3.13350534 3.01669827 3.13350534 5 4 C4.34 4 3.68 4 3 4 C3 7.3 3 10.6 3 14 C2.67 14 2.34 14 2 14 C1.93941406 13.40832031 1.87882812 12.81664062 1.81640625 12.20703125 C1.37987629 8.09021792 0.91328654 4.04455467 0 0 Z " fill="#7D8087" transform="translate(287,226)"/>
<path d="M0 0 C1.32 0 2.64 0 4 0 C4 0.66 4 1.32 4 2 C7.465 1.505 7.465 1.505 11 1 C9.515 2.485 9.515 2.485 8 4 C2.25 2.25 2.25 2.25 0 0 Z " fill="#7393B1" transform="translate(337,337)"/>
<path d="M0 0 C2.31 0 4.62 0 7 0 C7.33 0.99 7.66 1.98 8 3 C7.34 3.66 6.68 4.32 6 5 C5.67 4.34 5.34 3.68 5 3 C2.47266765 2.34444881 2.47266765 2.34444881 0 2 C0 1.34 0 0.68 0 0 Z " fill="#DA4B19" transform="translate(288,170)"/>
<path d="M0 0 C0.66 0 1.32 0 2 0 C2.33 2.97 2.66 5.94 3 9 C2.34 9 1.68 9 1 9 C0.67 6.03 0.34 3.06 0 0 Z " fill="#C77251" transform="translate(281,114)"/>
<path d="M0 0 C-0.33 0.66 -0.66 1.32 -1 2 C-3.64860427 2.59355614 -6.29197322 2.74209269 -9 3 C-6.38997624 -0.48003168 -4.1689578 -0.27793052 0 0 Z " fill="#6B8FAA" transform="translate(296,363)"/>
<path d="M0 0 C-2.55068845 2.35448165 -3.71017358 2.98327924 -7.25 3.1875 C-8.1575 3.125625 -9.065 3.06375 -10 3 C-10 2.34 -10 1.68 -10 1 C-6.59437148 0.22157062 -3.49234244 -0.09978121 0 0 Z " fill="#7396B3" transform="translate(277,307)"/>
<path d="M0 0 C1.65 0.33 3.3 0.66 5 1 C5 1.66 5 2.32 5 3 C3.02 3.33 1.04 3.66 -1 4 C-0.67 2.68 -0.34 1.36 0 0 Z " fill="#C86033" transform="translate(97,218)"/>
<path d="M0 0 C3.3 0.99 6.6 1.98 10 3 C5.99998285 4.00000429 3.94476647 3.80688405 0 3 C0 2.01 0 1.02 0 0 Z " fill="#CA6F58" transform="translate(293,134)"/>
<path d="M0 0 C0.33 0 0.66 0 1 0 C1 1.98 1 3.96 1 6 C-0.65 6 -2.3 6 -4 6 C-2.69593116 3.98079663 -1.36176581 1.98075027 0 0 Z " fill="#356B97" transform="translate(295,357)"/>
<path d="M0 0 C1.32 1.65 2.64 3.3 4 5 C3.01 5.99 2.02 6.98 1 8 C-0.35439668 5.29120665 -0.06501451 2.99066732 0 0 Z " fill="#C15D3A" transform="translate(352,181)"/>
</svg>
