<?xml version="1.0" encoding="UTF-8"?>
<svg version="1.1" xmlns="http://www.w3.org/2000/svg" width="1024" height="1024">
<path d="M0 0 C337.92 0 675.84 0 1024 0 C1024 337.92 1024 675.84 1024 1024 C686.08 1024 348.16 1024 0 1024 C0 686.08 0 348.16 0 0 Z " fill="#FDFDFD" transform="translate(0,0)"/>
<path d="M0 0 C0 66.66 0 133.32 0 202 C-4.95 204.31 -9.9 206.62 -15 209 C-15 200.42 -15 191.84 -15 183 C-41.4 183 -67.8 183 -95 183 C-95 195.87 -95 208.74 -95 222 C-83.37697504 221.80247884 -83.37697504 221.80247884 -71.75512695 221.54956055 C-70.29119696 221.53494889 -68.82724657 221.52220982 -67.36328125 221.51171875 C-66.6115564 221.48613892 -65.85983154 221.46055908 -65.08532715 221.4342041 C-61.32650027 221.43109403 -59.32232168 221.75607711 -56.2964325 224.04597473 C-53.46175647 227.69237175 -53.30333117 230.39765594 -53.38476562 234.83203125 C-53.37644211 235.99150772 -53.37644211 235.99150772 -53.36795044 237.17440796 C-53.35617157 239.72107592 -53.38040949 242.2659574 -53.40625 244.8125 C-53.40796167 246.58699462 -53.40789485 248.36149176 -53.40612793 250.13598633 C-53.40778017 253.85164645 -53.42646006 257.56670251 -53.45800781 261.28222656 C-53.49768525 266.04046656 -53.50205248 270.79791564 -53.49454498 275.55628967 C-53.49147266 279.21951519 -53.50360513 282.88256352 -53.52067566 286.54574585 C-53.52769749 288.29998666 -53.53083118 290.05424754 -53.52998352 291.8085022 C-53.5317851 294.26202554 -53.5531968 296.71460844 -53.58007812 299.16796875 C-53.57714752 299.89019623 -53.57421692 300.61242371 -53.57119751 301.35653687 C-53.64507917 305.73600822 -54.29772785 308.52630252 -57 312 C-60.59397414 314.39598276 -63.14795759 314.25808949 -67.29296875 314.1953125 C-68.58485107 314.19031738 -69.8767334 314.18532227 -71.20776367 314.18017578 C-72.85107666 314.16196777 -74.49438965 314.14375977 -76.1875 314.125 C-81.405625 314.08375 -86.62375 314.0425 -92 314 C-92 333.47 -92 352.94 -92 373 C-81.73834124 372.80270079 -81.73834124 372.80270079 -71.47802734 372.54956055 C-69.55144287 372.53082886 -69.55144287 372.53082886 -67.5859375 372.51171875 C-65.62213135 372.47244263 -65.62213135 372.47244263 -63.61865234 372.43237305 C-58.7754421 373.19208589 -57.26668554 374.3598367 -54 378 C-53.31884766 380.9543457 -53.31884766 380.9543457 -53.4140625 384.17578125 C-53.42904785 385.21903564 -53.4440332 386.26229004 -53.45947266 387.3371582 C-53.54140869 389.30495239 -53.54140869 389.30495239 -53.625 391.3125 C-53.810625 397.5928125 -53.810625 397.5928125 -54 404 C-41.13 404 -28.26 404 -15 404 C-15 377.6 -15 351.2 -15 324 C-7.575 327.465 -7.575 327.465 0 331 C0 396.01 0 461.02 0 528 C-5.51092129 526.89781574 -8.80113441 525.75985744 -12.36955261 521.28103638 C-17.66953778 512.37509139 -16.62728069 502.55921881 -16.48828125 492.5546875 C-16.4789425 490.573587 -16.47183141 488.59247487 -16.46684265 486.61135864 C-16.4478565 481.42602007 -16.39882874 476.24139453 -16.34332275 471.05633545 C-16.29194851 465.75380088 -16.26928995 460.45114982 -16.24414062 455.1484375 C-16.19070099 444.76526315 -16.10283449 434.38280274 -16 424 C-28.54 424 -41.08 424 -54 424 C-53.84197357 435.95190413 -53.84197357 435.95190413 -53.63964844 447.90307617 C-53.62795949 449.4080288 -53.61776814 450.91299413 -53.609375 452.41796875 C-53.58891113 453.1912854 -53.56844727 453.96460205 -53.54736328 454.76135254 C-53.54491679 458.56013599 -53.83343415 460.73921097 -55.89941406 463.97387695 C-59.70541404 467.64495945 -63.19431553 467.16025407 -68.22583008 467.17700195 C-69.07640488 467.18357315 -69.92697968 467.19014435 -70.80332947 467.19691467 C-73.62539757 467.21666696 -76.44741242 467.22831439 -79.26953125 467.23828125 C-80.23232183 467.24235678 -81.19511242 467.2464323 -82.18707848 467.25063133 C-87.2826758 467.27150004 -92.37824612 467.28579844 -97.47387695 467.29516602 C-102.73998904 467.30623376 -108.00567896 467.34063562 -113.27164173 467.38033772 C-117.31826062 467.40646923 -121.36477838 467.41485476 -125.41147423 467.41844749 C-127.35275817 467.42332222 -129.29403734 467.43496132 -131.23523903 467.45348549 C-133.95249613 467.47780391 -136.66865398 467.47692539 -139.38598633 467.4699707 C-140.58860611 467.48918579 -140.58860611 467.48918579 -141.81552124 467.50878906 C-145.59013894 467.47358051 -147.76451489 467.15069564 -150.97587585 465.09562683 C-154.53373957 461.4120807 -154.15955956 458.20117743 -154.17700195 453.32495117 C-154.18685875 452.13687111 -154.18685875 452.13687111 -154.19691467 450.92478943 C-154.21666289 448.29751496 -154.22831359 445.67029768 -154.23828125 443.04296875 C-154.24439454 441.69807593 -154.24439454 441.69807593 -154.25063133 440.32601357 C-154.27149852 435.58054458 -154.28579745 430.83510457 -154.29516602 426.08959961 C-154.30623218 421.18667829 -154.3406325 416.28421061 -154.38033772 411.3814497 C-154.40647655 407.61276909 -154.41485541 403.84419702 -154.41844749 400.07543373 C-154.4233205 398.2681198 -154.43495478 396.46081094 -154.45348549 394.65358543 C-154.47781941 392.12310163 -154.47692276 389.59379727 -154.4699707 387.06323242 C-154.48918579 385.94476929 -154.48918579 385.94476929 -154.50878906 384.80371094 C-154.45992502 379.92038915 -153.48371472 377.42207581 -150 374 C-146.93386053 372.46693026 -143.72919216 372.87858334 -140.3671875 372.90234375 C-139.36764038 372.90385437 -139.36764038 372.90385437 -138.34790039 372.90539551 C-135.85691611 372.91063045 -133.36595634 372.92459171 -130.875 372.9375 C-122.521875 372.9684375 -122.521875 372.9684375 -114 373 C-114 353.53 -114 334.06 -114 314 C-124.96485806 314.19748516 -124.96485806 314.19748516 -135.9284668 314.45043945 C-137.31036442 314.46505226 -138.69228368 314.47779106 -140.07421875 314.48828125 C-140.78276001 314.51386108 -141.49130127 314.53944092 -142.22131348 314.5657959 C-146.19618483 314.56927835 -147.81651519 314.15049328 -150.93286133 311.59448242 C-154.17695164 307.5227985 -154.16315188 304.65382882 -154.19287109 299.61621094 C-154.20513733 298.47443138 -154.20513733 298.47443138 -154.21765137 297.30958557 C-154.24251131 294.7845234 -154.25902405 292.25951753 -154.2734375 289.734375 C-154.27876118 288.87212563 -154.28408485 288.00987625 -154.28956985 287.12149811 C-154.31630579 282.55643095 -154.33567806 277.99139117 -154.35009766 273.42626953 C-154.36673444 268.71390008 -154.41150237 264.0022315 -154.4624691 259.2901268 C-154.49615061 255.66466482 -154.50767611 252.03936889 -154.51332474 248.41376495 C-154.52003621 246.67703148 -154.53525567 244.94030889 -154.55921555 243.20372772 C-154.590887 240.76902982 -154.59090156 238.33621758 -154.58349609 235.90136719 C-154.59990143 235.18737259 -154.61630676 234.47337799 -154.63320923 233.73774719 C-154.56324324 228.10180033 -152.84614679 225.81662767 -149 222 C-146.04183458 220.52091729 -143.04551087 220.87798675 -139.8046875 220.90234375 C-138.51030762 220.90484131 -137.21592773 220.90733887 -135.88232422 220.90991211 C-133.40369873 220.92356812 -133.40369873 220.92356812 -130.875 220.9375 C-123.016875 220.9684375 -123.016875 220.9684375 -115 221 C-115 208.79 -115 196.58 -115 184 C-159.22 184 -203.44 184 -249 184 C-249 196.54 -249 209.08 -249 222 C-237.70627712 221.84200125 -237.70627712 221.84200125 -226.41333008 221.63964844 C-224.99040937 221.62795861 -223.56747523 221.61776747 -222.14453125 221.609375 C-221.41439819 221.58891113 -220.68426514 221.56844727 -219.93200684 221.54736328 C-216.54133704 221.54505474 -214.27228389 221.84553621 -211.30514526 223.52876282 C-208.19953918 226.85813618 -208.28801851 229.66118226 -208.3371582 233.99389648 C-208.32679031 234.79599548 -208.31642242 235.59809448 -208.30574036 236.42449951 C-208.27865333 239.07388595 -208.28833519 241.72161883 -208.30078125 244.37109375 C-208.29487287 246.21428388 -208.28762638 248.05747016 -208.27909851 249.90065002 C-208.26721461 253.76347853 -208.2739311 257.625731 -208.29321289 261.48852539 C-208.31608983 266.43665395 -208.28933616 271.38306422 -208.24815083 276.33102322 C-208.2225624 280.13755446 -208.22515563 283.94367522 -208.23604393 287.75026131 C-208.23753017 289.57430645 -208.2298457 291.39838313 -208.21279335 293.22234917 C-208.19280554 295.77485853 -208.21121867 298.32433882 -208.23950195 300.87670898 C-208.21892731 302.00448509 -208.21892731 302.00448509 -208.19793701 303.15504456 C-208.28696281 307.17931198 -208.89129577 308.87225183 -211.52323914 311.96528625 C-215.21686881 314.56398476 -218.98963141 314.71890548 -223.38867188 314.67871094 C-224.20896378 314.69068512 -225.02925568 314.7026593 -225.87440491 314.71499634 C-228.57300535 314.74707316 -231.26999165 314.74237775 -233.96875 314.734375 C-235.85152743 314.74282753 -237.73429986 314.75246869 -239.61706543 314.76324463 C-243.55788598 314.77961888 -247.49814454 314.77694073 -251.43896484 314.76171875 C-256.48350816 314.74442166 -261.52597303 314.78160305 -266.57021332 314.83398056 C-270.45657066 314.86709233 -274.34242907 314.867658 -278.22889709 314.85883331 C-280.08841871 314.85919275 -281.94797202 314.87045769 -283.80735779 314.89293671 C-286.41002029 314.92022977 -289.0087609 314.90274825 -291.61132812 314.87402344 C-292.7570504 314.899991 -292.7570504 314.899991 -293.92591858 314.92648315 C-298.19301908 314.82590113 -300.47642555 314.06818512 -303.47477722 310.94807434 C-306.30174779 307.14742291 -306.86132962 303.61861024 -306.79223633 298.95678711 C-306.80435654 298.18511703 -306.81647675 297.41344696 -306.82896423 296.61839294 C-306.86027326 294.08723916 -306.84790449 291.558609 -306.83203125 289.02734375 C-306.83861909 287.25809571 -306.84683884 285.48885306 -306.85661316 283.71961975 C-306.8699398 280.02004565 -306.86116864 276.32134004 -306.8371582 272.62182617 C-306.80854564 267.88772053 -306.83867025 263.15610078 -306.88579273 258.42221737 C-306.9150189 254.77172229 -306.9112449 251.12181929 -306.89777184 247.47125435 C-306.89562278 245.72618226 -306.90408652 243.98106274 -306.92350197 242.23609734 C-307.04733926 228.8435278 -307.04733926 228.8435278 -304.6287384 224.58630371 C-301.74915269 221.83996199 -299.44119992 221.08693748 -295.54321289 220.31884766 C-294.3649292 220.35026855 -293.18664551 220.38168945 -291.97265625 220.4140625 C-290.68681641 220.43339844 -289.40097656 220.45273437 -288.07617188 220.47265625 C-286.73825619 220.52277281 -285.40036555 220.5735623 -284.0625 220.625 C-282.69732448 220.65513919 -281.33208483 220.68250806 -279.96679688 220.70703125 C-276.64288435 220.77750289 -273.32227494 220.87599893 -270 221 C-270.00888245 220.3596431 -270.01776489 219.71928619 -270.0269165 219.05952454 C-270.11543671 212.3923943 -270.17575393 205.72543111 -270.21972656 199.05786133 C-270.23983705 196.56983662 -270.26712927 194.08185914 -270.30175781 191.59399414 C-270.35029853 188.01697125 -270.37297495 184.44057349 -270.390625 180.86328125 C-270.41127014 179.75165115 -270.43191528 178.64002106 -270.45318604 177.4947052 C-270.45543083 169.76223199 -270.45543083 169.76223199 -268.10058594 165.82104492 C-264.97539646 163.11174828 -263.29268294 162.87548139 -259.24179077 162.87974548 C-258.23775711 162.87837082 -257.23372345 162.87699615 -256.19926453 162.87557983 C-254.54094353 162.88097275 -254.54094353 162.88097275 -252.84912109 162.88647461 C-251.68815414 162.88632858 -250.52718719 162.88618256 -249.33103943 162.8860321 C-245.4784867 162.88673097 -241.62598182 162.89452219 -237.7734375 162.90234375 C-235.10828571 162.90420802 -232.44313659 162.90568105 -229.77798462 162.90663147 C-223.47045915 162.90974255 -217.16295096 162.91795294 -210.85543311 162.92798096 C-202.97133372 162.94024407 -195.08723154 162.94572634 -187.203125 162.95117188 C-173.1354032 162.96091847 -159.06771912 162.98094952 -145 163 C-145 145.18 -145 127.36 -145 109 C-137.74 109 -130.48 109 -123 109 C-123 126.82 -123 144.64 -123 163 C-87.36 163 -51.72 163 -15 163 C-15 132.97 -15 102.94 -15 72 C-38.43 72 -61.86 72 -86 72 C-86 65.4 -86 58.8 -86 52 C-62.57 52 -39.14 52 -15 52 C-15.15800849 38.11858104 -15.15800849 38.11858104 -15.36035156 24.23779297 C-15.37204104 22.48926777 -15.38223226 20.74073163 -15.390625 18.9921875 C-15.41108887 18.09443604 -15.43155273 17.19668457 -15.45263672 16.27172852 C-15.45574589 10.66122945 -14.77994051 7.43599915 -11 3 C-6.88150105 -0.25144654 -5.67158558 0 0 0 Z " fill="#363E49" transform="translate(503,225)"/>
<path d="M0 0 C41.91 0 83.82 0 127 0 C127 14.325 127 14.325 126.25 21.5 C126.188125 22.27085937 126.12625 23.04171875 126.0625 23.8359375 C125.71927978 27.14229233 125.28041416 29.58690207 123.3984375 32.359375 C120.24697339 34.51509963 116.98832596 35.63839315 113.375 36.75 C112.61171387 37.00475098 111.84842773 37.25950195 111.06201172 37.52197266 C106.1427934 39.13399093 101.21643849 40.43948617 96.171875 41.6015625 C84.95881482 43.75063427 84.95881482 43.75063427 75.58398438 49.56835938 C73.72880055 53.34269888 73.62101941 57.43850936 73.33496094 61.55615234 C72.67065713 66.40285869 70.73976771 70.89022328 69 75.4375 C68.66597168 76.34838379 68.33194336 77.25926758 67.98779297 78.19775391 C66.11212025 83.2740308 64.05749497 88.169848 61.63671875 93.01196289 C60.85563797 95.45074386 61.08862191 96.62931745 62 99 C63.99722705 101.5081737 63.99722705 101.5081737 66.5 104.0625 C70.84717003 108.69169944 74.91863814 113.47170151 78.8828125 118.4375 C81.34718596 121.42021031 84.00630815 124.16483805 86.78515625 126.85546875 C88.67641397 130.19405553 88.70302234 133.32566575 88 137 C86.68958517 139.8492702 84.946465 142.25230504 83.0625 144.75 C82.56250488 145.44174316 82.06250977 146.13348633 81.54736328 146.84619141 C80.04838799 148.91044005 78.52526324 150.95514159 77 153 C76.19211366 154.11581665 75.38596689 155.23289606 74.58203125 156.3515625 C70.45544008 162.00462722 66.08978035 167.31678904 61.3359375 172.453125 C59.42208988 174.53979498 57.57635702 176.65944045 55.734375 178.80859375 C52.01391286 183.07181035 48.01381677 186.95925376 43.875 190.8125 C43.18535156 191.46669922 42.49570312 192.12089844 41.78515625 192.79492188 C34.62486262 199.49657337 34.62486262 199.49657337 31 201 C26.57132546 200.57630697 23.27302103 199.3530667 19.3671875 197.26953125 C18.31273437 196.71330078 17.25828125 196.15707031 16.171875 195.58398438 C15.08390625 194.99939453 13.9959375 194.41480469 12.875 193.8125 C9.65911342 192.10527692 6.4417843 190.40091475 3.22167969 188.70166016 C1.02988838 187.54397712 -1.15680318 186.37659846 -3.33886719 185.20068359 C-4.40008789 184.6433252 -5.46130859 184.0859668 -6.5546875 183.51171875 C-7.50585449 183.00471436 -8.45702148 182.49770996 -9.43701172 181.9753418 C-12.33829559 180.87126206 -13.19052574 180.79785104 -16 182 C-17.83655903 183.01395738 -19.64521328 184.07907988 -21.43359375 185.17578125 C-27.79628729 188.9570998 -34.32967203 192.12567581 -41.0625 195.1875 C-42.15626953 195.69474609 -43.25003906 196.20199219 -44.37695312 196.72460938 C-62.41966602 205 -62.41966602 205 -67 205 C-66.96390625 206.12664062 -66.9278125 207.25328125 -66.890625 208.4140625 C-66.89604169 215.32846813 -67.70902765 222.1794327 -68.48925781 229.04052734 C-68.75154566 231.38883857 -68.9889771 233.73892153 -69.2265625 236.08984375 C-69.39430596 237.58871339 -69.5635238 239.08741892 -69.734375 240.5859375 C-69.80122498 241.28592865 -69.86807495 241.9859198 -69.93695068 242.7071228 C-70.30847194 245.74068155 -70.64291437 247.61768792 -72.7590332 249.88330078 C-75.23454475 251.11687631 -77.40584151 251.75001032 -80.12109375 252.28125 C-81.63292236 252.58240723 -81.63292236 252.58240723 -83.17529297 252.88964844 C-84.79008545 253.19177246 -84.79008545 253.19177246 -86.4375 253.5 C-87.54754395 253.71430664 -88.65758789 253.92861328 -89.80126953 254.14941406 C-112.0331454 258.3565594 -133.14856265 260 -156 260 C-156 220.07 -156 180.14 -156 139 C-143.625 138.505 -143.625 138.505 -131 138 C-93.59193445 133.57300999 -57.8392763 116.91260636 -33.3125 87.625 C-31.85525568 85.76530373 -30.41799184 83.88979639 -29 82 C-27.87464844 80.50533203 -27.87464844 80.50533203 -26.7265625 78.98046875 C-9.47456256 55.1044074 -2.7721489 29.10756343 0 0 Z " fill="#3D76A8" transform="translate(676,495)"/>
<path d="M0 0 C7.73854591 0 13.68557628 0.02668046 21 1 C22.90413145 1.0897432 24.80932769 1.15822184 26.71484375 1.2109375 C28.23948242 1.25347656 28.23948242 1.25347656 29.79492188 1.296875 C31.88589024 1.34885681 33.97706398 1.39315832 36.06835938 1.4296875 C50.95263208 1.88215431 50.95263208 1.88215431 55.63623047 6.67407227 C57.40559003 9.69173939 58.01952643 12.5058993 58.75390625 15.92578125 C58.90029037 16.59159714 59.0466745 17.25741302 59.19749451 17.94340515 C59.66200658 20.06450163 60.11275902 22.18822745 60.5625 24.3125 C61.01852334 26.42538397 61.47741767 28.53761257 61.93821716 30.64945984 C62.35653379 32.57291102 62.767466 34.49796383 63.17797852 36.4230957 C63.44924561 37.60347412 63.7205127 38.78385254 64 40 C64.2784375 41.26618164 64.556875 42.53236328 64.84375 43.83691406 C65.6715571 47.03124896 65.6715571 47.03124896 67.85327148 48.31030273 C68.60165283 48.51598877 69.35003418 48.7216748 70.12109375 48.93359375 C70.96551025 49.1860083 71.80992676 49.43842285 72.67993164 49.69848633 C73.5899292 49.94236084 74.49992676 50.18623535 75.4375 50.4375 C77.34312471 51.00643424 79.24674264 51.58212748 81.1484375 52.1640625 C82.6039502 52.60540527 82.6039502 52.60540527 84.08886719 53.05566406 C88.69131103 54.54864065 93.12095537 56.40027111 97.5625 58.3125 C98.35261475 58.65015381 99.14272949 58.98780762 99.95678711 59.33569336 C105.49038348 61.72554439 105.49038348 61.72554439 108.04858398 63.10327148 C111.2257754 64.563277 113.80213254 64.06693019 117 63 C120.98068148 60.97981907 124.72938115 58.63500091 128.5 56.25 C129.50675781 55.62867188 130.51351562 55.00734375 131.55078125 54.3671875 C135.77347468 51.7439153 139.88178964 49.13249709 143.78125 46.046875 C147.7086444 43.5493572 149.42920379 43.13890805 154 44 C156.95146965 45.60757064 159.47129266 47.62004373 162.0625 49.75 C162.80056885 50.33620117 163.5386377 50.92240234 164.29907227 51.52636719 C166.55177546 53.32891718 168.7797846 55.15762997 171 57 C171.65581055 57.54398437 172.31162109 58.08796875 172.98730469 58.6484375 C176.51923358 61.59874485 180.00458068 64.59778721 183.45703125 67.640625 C184.91323076 68.9235552 186.37822595 70.19648187 187.84375 71.46875 C192.35295923 75.43468101 196.48727961 79.47949691 200.328125 84.09765625 C202.57936439 86.65923005 205.11353748 88.86530095 207.71484375 91.06640625 C209.72940702 94.0974361 209.35889246 96.44129796 209 100 C207.8203125 103.11328125 207.8203125 103.11328125 206.125 106.3125 C205.82271484 106.89499512 205.52042969 107.47749023 205.20898438 108.07763672 C203.31317775 111.68928025 201.3035821 115.23202912 199.2734375 118.76953125 C198.81437012 119.57543701 198.35530273 120.38134277 197.88232422 121.21166992 C196.9719372 122.80106867 196.04933512 124.38354248 195.11376953 125.95825195 C194.69466309 126.68616943 194.27555664 127.41408691 193.84375 128.1640625 C193.46412109 128.80811035 193.08449219 129.4521582 192.69335938 130.11572266 C191.80888396 132.51937804 192.10363749 133.62689211 193 136 C194.45510505 138.2981421 195.94326902 140.52324691 197.5 142.75 C206.18748581 155.5142948 213.10302681 168.74108092 219 183 C221.93712418 183.29591605 224.87454877 183.58746821 227.8125 183.875 C228.73071533 183.96523438 229.64893066 184.05546875 230.5949707 184.1484375 C236.17138297 184.68115389 241.74651327 185.13401151 247.3359375 185.5078125 C248.55692139 185.59047363 249.77790527 185.67313477 251.03588867 185.75830078 C253.45220708 185.91823628 255.86905534 186.07037552 258.28637695 186.21435547 C259.39198975 186.28799316 260.49760254 186.36163086 261.63671875 186.4375 C262.62373779 186.49808594 263.61075684 186.55867187 264.62768555 186.62109375 C267 187 267 187 269 189 C269.53339593 190.89915202 269.97456336 192.82464518 270.3671875 194.7578125 C270.73312012 196.52125 270.73312012 196.52125 271.10644531 198.3203125 C271.36006836 199.57585937 271.61369141 200.83140625 271.875 202.125 C274.35705606 214.11002523 274.35705606 214.11002523 277.25 226 C279.30032756 233.9706484 281 241.74975322 281 250 C239.42 250 197.84 250 155 250 C154.01 243.07 154.01 243.07 153 236 C148.60266896 211.57522068 138.01042835 188.93835873 122 170 C121.56961426 169.48985352 121.13922852 168.97970703 120.69580078 168.45410156 C96.6031769 140.27904197 60.01946433 121.08495536 23 118 C11.615 117.505 11.615 117.505 0 117 C0 78.39 0 39.78 0 0 Z " fill="#D04F1B" transform="translate(520,224)"/>
<path d="M0 0 C0.79044708 -0.00817749 1.58089417 -0.01635498 2.39529419 -0.02478027 C5.0177535 -0.04964297 7.6401586 -0.06615353 10.26269531 -0.08056641 C11.15804237 -0.08589008 12.05338943 -0.09121376 12.97586823 -0.09669876 C17.7159998 -0.12343567 22.456105 -0.14280779 27.19628906 -0.15722656 C32.09024896 -0.17386509 36.98353422 -0.2186344 41.87723923 -0.26959801 C45.64167037 -0.30327312 49.40594154 -0.31480433 53.17050934 -0.32045364 C54.97422687 -0.32716668 56.77793386 -0.34239018 58.58150482 -0.36634445 C61.10958084 -0.39800218 63.6358399 -0.39803231 66.1640625 -0.390625 C66.90610931 -0.40703033 67.64815613 -0.42343567 68.41268921 -0.44033813 C72.19947474 -0.3950347 74.81156497 0.15216278 77.80929565 2.40126038 C80.57478405 5.450872 81.08179288 6.42421373 81.02197266 10.44213867 C81.02124756 11.47697388 81.02052246 12.51180908 81.01977539 13.57800293 C80.98907959 14.65360474 80.95838379 15.72920654 80.92675781 16.83740234 C80.92071533 17.8349353 80.91467285 18.83246826 80.90844727 19.86022949 C80.87712642 23.57569952 80.79335717 27.29057816 80.71582031 31.00537109 C80.59207031 39.31724609 80.46832031 47.62912109 80.34082031 56.19287109 C103.77082031 56.19287109 127.20082031 56.19287109 151.34082031 56.19287109 C151.34082031 86.22287109 151.34082031 116.25287109 151.34082031 147.19287109 C115.70082031 147.19287109 80.06082031 147.19287109 43.34082031 147.19287109 C43.34082031 129.37287109 43.34082031 111.55287109 43.34082031 93.19287109 C26.78159791 93.35103013 26.78159791 93.35103013 10.22290039 93.55322266 C8.14372579 93.5649074 6.06454204 93.57509973 3.98535156 93.58349609 C2.37194885 93.61419189 2.37194885 93.61419189 0.72595215 93.64550781 C-6.89894657 93.6490696 -6.89894657 93.6490696 -10.82446289 91.29345703 C-14.09714381 87.54653133 -13.81891 84.37804749 -13.83618164 79.60961914 C-13.84275284 78.82731934 -13.84932404 78.04501953 -13.85609436 77.23901367 C-13.87584184 74.6442048 -13.88749313 72.04945385 -13.89746094 69.45458984 C-13.90153646 68.56902719 -13.90561199 67.68346455 -13.90981102 66.77106667 C-13.93067793 62.08395241 -13.94497696 57.39686748 -13.9543457 52.7097168 C-13.96541159 47.86732706 -13.99981162 43.02539668 -14.0395174 38.18316936 C-14.06565757 34.4608118 -14.07403522 30.7385641 -14.07762718 27.01612282 C-14.08249987 25.23113719 -14.09413329 23.44615668 -14.11266518 21.6612606 C-14.13700191 19.16190533 -14.13610197 16.66374401 -14.12915039 14.16430664 C-14.14196045 13.42801529 -14.15477051 12.69172394 -14.16796875 11.93312073 C-14.11875758 7.07473993 -13.11748522 4.59945527 -9.65917969 1.19287109 C-6.59110825 -0.34116463 -3.36816095 0.01912726 0 0 Z " fill="#4078AA" transform="translate(336.6591796875,240.80712890625)"/>
<path d="M0 0 C33.43067384 0 62.36063622 10.66674929 86.5 34.0625 C100.8785006 48.46618921 110.47931206 67.22793855 115 87 C115.22429687 87.95777344 115.44859375 88.91554688 115.6796875 89.90234375 C121.15294865 117.2311614 114.72969451 147.59279964 99.578125 170.83203125 C97.18912605 174.33119282 94.64216202 177.68908377 92 181 C91.29230469 181.89203125 90.58460938 182.7840625 89.85546875 183.703125 C71.63398121 205.20380417 45.25478204 216.45753633 18 221 C12.06 221 6.12 221 0 221 C0 207.47 0 193.94 0 180 C8.91 179.01 8.91 179.01 18 178 C36.31837957 174.33632409 52.22006458 164.28827532 63.0625 149.05078125 C72.50260489 134.18642255 76.6100011 116.1514402 73.6015625 98.68701172 C69.6785591 81.27868413 60.50140872 65.66835407 46 55 C31.00669766 45.82457748 17.9145588 43.88574303 0 42 C0 28.14 0 14.28 0 0 Z " fill="#353E49" transform="translate(520,381)"/>
<path d="M0 0 C0.33 0 0.66 0 1 0 C1 17.49 1 34.98 1 53 C7.27 53 13.54 53 20 53 C20 40.13 20 27.26 20 14 C64.88 14 109.76 14 156 14 C156 26.87 156 39.74 156 53 C145.11 53 134.22 53 123 53 C123 52.67 123 52.34 123 52 C133.56 52 144.12 52 155 52 C155 39.79 155 27.58 155 15 C110.78 15 66.56 15 21 15 C21 27.54 21 40.08 21 53 C32.29372288 52.84200125 32.29372288 52.84200125 43.58666992 52.63964844 C45.00959063 52.62795861 46.43252477 52.61776747 47.85546875 52.609375 C48.58560181 52.58891113 49.31573486 52.56844727 50.06799316 52.54736328 C53.45866296 52.54505474 55.72771611 52.84553621 58.69485474 54.52876282 C61.80046082 57.85813618 61.71198149 60.66118226 61.6628418 64.99389648 C61.67320969 65.79599548 61.68357758 66.59809448 61.69425964 67.42449951 C61.72134667 70.07388595 61.71166481 72.72161883 61.69921875 75.37109375 C61.70512713 77.21428388 61.71237362 79.05747016 61.72090149 80.90065002 C61.73278539 84.76347853 61.7260689 88.625731 61.70678711 92.48852539 C61.68391017 97.43665395 61.71066384 102.38306422 61.75184917 107.33102322 C61.7774376 111.13755446 61.77484437 114.94367522 61.76395607 118.75026131 C61.76246983 120.57430645 61.7701543 122.39838313 61.78720665 124.22234917 C61.80719446 126.77485853 61.78878133 129.32433882 61.76049805 131.87670898 C61.78107269 133.00448509 61.78107269 133.00448509 61.80206299 134.15504456 C61.71303719 138.17931198 61.10870423 139.87225183 58.47676086 142.96528625 C54.78313119 145.56398476 51.01036859 145.71890548 46.61132812 145.67871094 C45.79103622 145.69068512 44.97074432 145.7026593 44.12559509 145.71499634 C41.42699465 145.74707316 38.73000835 145.74237775 36.03125 145.734375 C34.14847257 145.74282753 32.26570014 145.75246869 30.38293457 145.76324463 C26.44211402 145.77961888 22.50185546 145.77694073 18.56103516 145.76171875 C13.51649184 145.74442166 8.47402697 145.78160305 3.42978668 145.83398056 C-0.45657066 145.86709233 -4.34242907 145.867658 -8.22889709 145.85883331 C-10.08841871 145.85919275 -11.94797202 145.87045769 -13.80735779 145.89293671 C-16.41002029 145.92022977 -19.0087609 145.90274825 -21.61132812 145.87402344 C-22.37514297 145.89133514 -23.13895782 145.90864685 -23.92591858 145.92648315 C-28.19301908 145.82590113 -30.47642555 145.06818512 -33.47477722 141.94807434 C-36.30174779 138.14742291 -36.86132962 134.61861024 -36.79223633 129.95678711 C-36.80435654 129.18511703 -36.81647675 128.41344696 -36.82896423 127.61839294 C-36.86027326 125.08723916 -36.84790449 122.558609 -36.83203125 120.02734375 C-36.83861909 118.25809571 -36.84683884 116.48885306 -36.85661316 114.71961975 C-36.8699398 111.02004565 -36.86116864 107.32134004 -36.8371582 103.62182617 C-36.80854564 98.88772053 -36.83867025 94.15610078 -36.88579273 89.42221737 C-36.9150189 85.77172229 -36.9112449 82.12181929 -36.89777184 78.47125435 C-36.89562278 76.72618226 -36.90408652 74.98106274 -36.92350197 73.23609734 C-37.04733926 59.8435278 -37.04733926 59.8435278 -34.6287384 55.58630371 C-31.74915269 52.83996199 -29.44119992 52.08693748 -25.54321289 51.31884766 C-24.3649292 51.35026855 -23.18664551 51.38168945 -21.97265625 51.4140625 C-20.81258057 51.42904785 -19.65250488 51.4440332 -18.45727539 51.45947266 C-17.00699951 51.51409668 -15.55672363 51.5687207 -14.0625 51.625 C-7.1015625 51.810625 -7.1015625 51.810625 0 52 C0 34.84 0 17.68 0 0 Z " fill="#CD5321" transform="translate(233,394)"/>
<path d="M0 0 C22.77 0 45.54 0 69 0 C69 29.7 69 59.4 69 90 C33.69 90 -1.62 90 -38 90 C-38 72.18 -38 54.36 -38 36 C-22.75 35.625 -22.75 35.625 -17.95605469 35.52197266 C-16.70727539 35.4863623 -15.45849609 35.45075195 -14.171875 35.4140625 C-12.2552002 35.36693115 -12.2552002 35.36693115 -10.29980469 35.31884766 C-7.21751584 35.02101773 -5.47776007 34.80889473 -3 33 C1.93963561 23.12072877 -0.38064828 11.03880007 0 0 Z " fill="#FDFDFD" transform="translate(418,298)"/>
<path d="M0 0 C0.85142578 -0.01611328 1.70285156 -0.03222656 2.58007812 -0.04882812 C14.37921403 -0.05781452 25.79429139 4.89613957 34.4375 12.9375 C44.89100591 24.16533968 47.92170302 35.91950689 47.56640625 50.75390625 C46.99384133 60.59012001 42.66180503 69.04903839 36.1875 76.3125 C35.71054687 76.90417969 35.23359375 77.49585938 34.7421875 78.10546875 C28.13364503 85.62725201 16.09562566 91.70948005 6.14453125 92.578125 C-9.39175578 92.50092606 -21.14316505 89.45351645 -32.7421875 78.58203125 C-42.01507974 68.41684184 -46.24753405 56.72704298 -46.01953125 43.046875 C-45.10160755 30.92335444 -40.01313787 20.36305814 -30.8125 12.3125 C-30.29042969 11.82265625 -29.76835937 11.3328125 -29.23046875 10.828125 C-25.13336753 7.09171666 -20.94214897 4.42188836 -15.8125 2.3125 C-14.94367188 1.95285156 -14.07484375 1.59320313 -13.1796875 1.22265625 C-8.73292515 0.02068917 -4.58537675 -0.01712239 0 0 Z " fill="#363E49" transform="translate(524.8125,445.6875)"/>
<path d="M0 0 C4.29 0 8.58 0 13 0 C13 0.33 13 0.66 13 1 C9.04 1 5.08 1 1 1 C1.33 19.48 1.66 37.96 2 57 C2.33 57 2.66 57 3 57 C3.80398083 60.5559538 4.14560682 63.88201612 4.20532227 67.5246582 C4.22526749 68.60540115 4.24521271 69.6861441 4.26576233 70.79963684 C4.28247482 71.9550145 4.29918732 73.11039215 4.31640625 74.30078125 C4.33718735 75.49229294 4.35796844 76.68380463 4.37937927 77.91142273 C4.44468179 81.71172403 4.50367018 85.51209352 4.5625 89.3125 C4.60570356 91.89128305 4.64931844 94.47005924 4.69335938 97.04882812 C4.80034348 103.36581581 4.90166541 109.68287199 5 116 C8.3 116 11.6 116 15 116 C15 116.33 15 116.66 15 117 C10.05 117 5.1 117 0 117 C0 78.39 0 39.78 0 0 Z " fill="#CD6338" transform="translate(520,224)"/>
<path d="M0 0 C0.66 0.33 1.32 0.66 2 1 C-1.3 4.63 -4.6 8.26 -8 12 C-8 8.03869629 -6.65122875 7.17085599 -4 4.3125 C-3.2575 3.50425781 -2.515 2.69601562 -1.75 1.86328125 C-1.1725 1.24839844 -0.595 0.63351562 0 0 Z " fill="#4B7CA6" transform="translate(645,580)"/>
</svg>
